<?xml version="1.0" encoding="UTF-8" standalone="no"?>
<!DOCTYPE svg PUBLIC "-//W3C//DTD SVG 1.1//EN"
 "http://www.w3.org/Graphics/SVG/1.1/DTD/svg11.dtd">
<!-- Generated by graphviz version 10.0.1 (20240210.2158)
 -->
<!-- Title: G Pages: 1 -->
<svg width="242pt" height="836pt"
 viewBox="0.00 0.00 241.94 836.00" xmlns="http://www.w3.org/2000/svg" xmlns:xlink="http://www.w3.org/1999/xlink">
<g id="graph0" class="graph" transform="scale(1 1) rotate(0) translate(4 832)">
<title>G</title>
<polygon fill="white" stroke="none" points="-4,4 -4,-832 237.94,-832 237.94,4 -4,4"/>
<!-- :douyin:core:network -->
<g id="node1" class="node">
<title>:douyin:core:network</title>
<ellipse fill="none" stroke="black" cx="116.97" cy="-810" rx="116.97" ry="18"/>
<text text-anchor="middle" x="116.97" y="-805.33" font-family="Times,serif" font-size="14.00">:douyin:core:network</text>
</g>
<!-- :core:network -->
<g id="node2" class="node">
<title>:core:network</title>
<ellipse fill="none" stroke="black" cx="116.97" cy="-414" rx="80.14" ry="18"/>
<text text-anchor="middle" x="116.97" y="-409.32" font-family="Times,serif" font-size="14.00">:core:network</text>
</g>
<!-- :douyin:core:network&#45;&gt;:core:network -->
<g id="edge1" class="edge">
<title>:douyin:core:network&#45;&gt;:core:network</title>
<path fill="none" stroke="red" stroke-width="2" d="M116.97,-791.56C116.97,-729.64 116.97,-519.98 116.97,-443.35"/>
<polygon fill="red" stroke="red" stroke-width="2" points="120.47,-445.26 116.97,-435.26 113.47,-445.26 120.47,-445.26"/>
</g>
<!-- :core:common -->
<g id="node3" class="node">
<title>:core:common</title>
<ellipse fill="none" stroke="black" cx="116.97" cy="-18" rx="81.2" ry="18"/>
<text text-anchor="middle" x="116.97" y="-13.32" font-family="Times,serif" font-size="14.00">:core:common</text>
</g>
<!-- :core:network&#45;&gt;:core:common -->
<g id="edge2" class="edge">
<title>:core:network&#45;&gt;:core:common</title>
<path fill="none" stroke="red" stroke-width="2" d="M116.97,-395.56C116.97,-333.64 116.97,-123.98 116.97,-47.35"/>
<polygon fill="red" stroke="red" stroke-width="2" points="120.47,-49.26 116.97,-39.26 113.47,-49.26 120.47,-49.26"/>
</g>
</g>
</svg>
