<?xml version="1.0" encoding="UTF-8" standalone="no"?>
<!DOCTYPE svg PUBLIC "-//W3C//DTD SVG 1.1//EN"
 "http://www.w3.org/Graphics/SVG/1.1/DTD/svg11.dtd">
<!-- Generated by graphviz version 10.0.1 (20240210.2158)
 -->
<!-- Title: G Pages: 1 -->
<svg width="2127pt" height="2024pt"
 viewBox="0.00 0.00 2126.50 2024.00" xmlns="http://www.w3.org/2000/svg" xmlns:xlink="http://www.w3.org/1999/xlink">
<g id="graph0" class="graph" transform="scale(1 1) rotate(0) translate(4 2020)">
<title>G</title>
<polygon fill="white" stroke="none" points="-4,4 -4,-2020 2122.5,-2020 2122.5,4 -4,4"/>
<!-- :douyin:shop:feature:shop -->
<g id="node1" class="node">
<title>:douyin:shop:feature:shop</title>
<ellipse fill="none" stroke="black" cx="800.73" cy="-1998" rx="141.17" ry="18"/>
<text text-anchor="middle" x="800.73" y="-1993.33" font-family="Times,serif" font-size="14.00">:douyin:shop:feature:shop</text>
</g>
<!-- :douyin:core:architecture -->
<g id="node2" class="node">
<title>:douyin:core:architecture</title>
<ellipse fill="none" stroke="black" cx="1019.73" cy="-1602" rx="137.49" ry="18"/>
<text text-anchor="middle" x="1019.73" y="-1597.33" font-family="Times,serif" font-size="14.00">:douyin:core:architecture</text>
</g>
<!-- :douyin:shop:feature:shop&#45;&gt;:douyin:core:architecture -->
<g id="edge1" class="edge">
<title>:douyin:shop:feature:shop&#45;&gt;:douyin:core:architecture</title>
<path fill="none" stroke="red" stroke-width="2" d="M810.42,-1979.56C845.05,-1917.26 962.81,-1705.39 1004.75,-1629.95"/>
<polygon fill="red" stroke="red" stroke-width="2" points="1006.87,-1633.32 1008.67,-1622.88 1000.76,-1629.92 1006.87,-1633.32"/>
</g>
<!-- :douyin:core:common -->
<g id="node3" class="node">
<title>:douyin:core:common</title>
<ellipse fill="none" stroke="black" cx="468.73" cy="-414" rx="118.02" ry="18"/>
<text text-anchor="middle" x="468.73" y="-409.32" font-family="Times,serif" font-size="14.00">:douyin:core:common</text>
</g>
<!-- :douyin:shop:feature:shop&#45;&gt;:douyin:core:common -->
<g id="edge2" class="edge">
<title>:douyin:shop:feature:shop&#45;&gt;:douyin:core:common</title>
<path fill="none" stroke="black" d="M718.86,-1982.95C560.75,-1950.89 216.31,-1856.06 72.73,-1620 -187.65,-1191.95 327.59,-572.95 445.45,-440.53"/>
<polygon fill="black" stroke="black" points="447.85,-443.09 451.92,-433.3 442.64,-438.42 447.85,-443.09"/>
</g>
<!-- :douyin:core:data -->
<g id="node4" class="node">
<title>:douyin:core:data</title>
<ellipse fill="none" stroke="black" cx="1238.73" cy="-1206" rx="98.03" ry="18"/>
<text text-anchor="middle" x="1238.73" y="-1201.33" font-family="Times,serif" font-size="14.00">:douyin:core:data</text>
</g>
<!-- :douyin:shop:feature:shop&#45;&gt;:douyin:core:data -->
<g id="edge3" class="edge">
<title>:douyin:shop:feature:shop&#45;&gt;:douyin:core:data</title>
<path fill="none" stroke="black" d="M827.97,-1979.85C900.3,-1932.65 1097.49,-1792.81 1183.73,-1620 1249.38,-1488.42 1245.45,-1305.37 1241.04,-1235.58"/>
<polygon fill="black" stroke="black" points="1244.54,-1235.51 1240.36,-1225.78 1237.56,-1235.99 1244.54,-1235.51"/>
</g>
<!-- :douyin:core:designsystem -->
<g id="node5" class="node">
<title>:douyin:core:designsystem</title>
<ellipse fill="none" stroke="black" cx="941.73" cy="-1206" rx="144.86" ry="18"/>
<text text-anchor="middle" x="941.73" y="-1201.33" font-family="Times,serif" font-size="14.00">:douyin:core:designsystem</text>
</g>
<!-- :douyin:shop:feature:shop&#45;&gt;:douyin:core:designsystem -->
<g id="edge4" class="edge">
<title>:douyin:shop:feature:shop&#45;&gt;:douyin:core:designsystem</title>
<path fill="none" stroke="black" d="M802.46,-1979.6C808.28,-1922.59 828.27,-1736.34 855.73,-1584 879.44,-1452.42 918.31,-1297.39 934.4,-1235.04"/>
<polygon fill="black" stroke="black" points="937.71,-1236.19 936.84,-1225.63 930.94,-1234.44 937.71,-1236.19"/>
</g>
<!-- :douyin:core:login -->
<g id="node6" class="node">
<title>:douyin:core:login</title>
<ellipse fill="none" stroke="black" cx="448.73" cy="-1602" rx="100.66" ry="18"/>
<text text-anchor="middle" x="448.73" y="-1597.33" font-family="Times,serif" font-size="14.00">:douyin:core:login</text>
</g>
<!-- :douyin:shop:feature:shop&#45;&gt;:douyin:core:login -->
<g id="edge5" class="edge">
<title>:douyin:shop:feature:shop&#45;&gt;:douyin:core:login</title>
<path fill="none" stroke="black" d="M785.37,-1979.82C729.68,-1917.48 538.06,-1702.99 471.62,-1628.63"/>
<polygon fill="black" stroke="black" points="474.44,-1626.53 465.17,-1621.4 469.22,-1631.19 474.44,-1626.53"/>
</g>
<!-- :douyin:core:router -->
<g id="node7" class="node">
<title>:douyin:core:router</title>
<ellipse fill="none" stroke="black" cx="635.73" cy="-1206" rx="107.5" ry="18"/>
<text text-anchor="middle" x="635.73" y="-1201.33" font-family="Times,serif" font-size="14.00">:douyin:core:router</text>
</g>
<!-- :douyin:shop:feature:shop&#45;&gt;:douyin:core:router -->
<g id="edge6" class="edge">
<title>:douyin:shop:feature:shop&#45;&gt;:douyin:core:router</title>
<path fill="none" stroke="black" d="M797.13,-1979.77C776.01,-1878.67 668.25,-1362.74 641.66,-1235.43"/>
<polygon fill="black" stroke="black" points="645.13,-1234.9 639.66,-1225.83 638.28,-1236.33 645.13,-1234.9"/>
</g>
<!-- :douyin:core:test -->
<g id="node8" class="node">
<title>:douyin:core:test</title>
<ellipse fill="none" stroke="black" cx="194.73" cy="-1602" rx="95.4" ry="18"/>
<text text-anchor="middle" x="194.73" y="-1597.33" font-family="Times,serif" font-size="14.00">:douyin:core:test</text>
</g>
<!-- :douyin:shop:feature:shop&#45;&gt;:douyin:core:test -->
<g id="edge7" class="edge">
<title>:douyin:shop:feature:shop&#45;&gt;:douyin:core:test</title>
<path fill="none" stroke="black" d="M774.69,-1980.07C678.04,-1917.23 339.78,-1697.31 229.66,-1625.72"/>
<polygon fill="black" stroke="black" points="231.89,-1622.99 221.6,-1620.47 228.07,-1628.86 231.89,-1622.99"/>
</g>
<!-- :douyin:core:webview -->
<g id="node9" class="node">
<title>:douyin:core:webview</title>
<ellipse fill="none" stroke="black" cx="1938.73" cy="-1602" rx="119.6" ry="18"/>
<text text-anchor="middle" x="1938.73" y="-1597.33" font-family="Times,serif" font-size="14.00">:douyin:core:webview</text>
</g>
<!-- :douyin:shop:feature:shop&#45;&gt;:douyin:core:webview -->
<g id="edge8" class="edge">
<title>:douyin:shop:feature:shop&#45;&gt;:douyin:core:webview</title>
<path fill="none" stroke="black" d="M848.18,-1980.57C1030.24,-1917.54 1683.81,-1691.26 1881.61,-1622.78"/>
<polygon fill="black" stroke="black" points="1882.6,-1626.14 1890.9,-1619.56 1880.31,-1619.52 1882.6,-1626.14"/>
</g>
<!-- :douyin:shop:core:data -->
<g id="node10" class="node">
<title>:douyin:shop:core:data</title>
<ellipse fill="none" stroke="black" cx="1544.73" cy="-1602" rx="124.86" ry="18"/>
<text text-anchor="middle" x="1544.73" y="-1597.33" font-family="Times,serif" font-size="14.00">:douyin:shop:core:data</text>
</g>
<!-- :douyin:shop:feature:shop&#45;&gt;:douyin:shop:core:data -->
<g id="edge9" class="edge">
<title>:douyin:shop:feature:shop&#45;&gt;:douyin:shop:core:data</title>
<path fill="none" stroke="black" d="M832.69,-1980.07C951.7,-1917.05 1369.03,-1696.04 1502.99,-1625.1"/>
<polygon fill="black" stroke="black" points="1504.34,-1628.35 1511.54,-1620.57 1501.06,-1622.16 1504.34,-1628.35"/>
</g>
<!-- :douyin:core:architecture&#45;&gt;:douyin:core:data -->
<g id="edge12" class="edge">
<title>:douyin:core:architecture&#45;&gt;:douyin:core:data</title>
<path fill="none" stroke="black" d="M1029.42,-1583.56C1064.05,-1521.26 1181.81,-1309.39 1223.75,-1233.95"/>
<polygon fill="black" stroke="black" points="1226.61,-1236 1228.41,-1225.56 1220.49,-1232.6 1226.61,-1236"/>
</g>
<!-- :douyin:core:architecture&#45;&gt;:douyin:core:designsystem -->
<g id="edge11" class="edge">
<title>:douyin:core:architecture&#45;&gt;:douyin:core:designsystem</title>
<path fill="none" stroke="red" stroke-width="2" d="M1016.27,-1583.56C1004.02,-1521.64 962.51,-1311.98 947.34,-1235.35"/>
<polygon fill="red" stroke="red" stroke-width="2" points="951.1,-1236.34 945.73,-1227.21 944.23,-1237.7 951.1,-1236.34"/>
</g>
<!-- :core:architecture -->
<g id="node11" class="node">
<title>:core:architecture</title>
<ellipse fill="none" stroke="black" cx="1932.73" cy="-810" rx="100.66" ry="18"/>
<text text-anchor="middle" x="1932.73" y="-805.33" font-family="Times,serif" font-size="14.00">:core:architecture</text>
</g>
<!-- :douyin:core:architecture&#45;&gt;:core:architecture -->
<g id="edge10" class="edge">
<title>:douyin:core:architecture&#45;&gt;:core:architecture</title>
<path fill="none" stroke="black" d="M1038.02,-1583.74C1098.93,-1526.42 1300.83,-1337.48 1473.73,-1188 1632.32,-1050.88 1828.5,-893.78 1902.55,-834.92"/>
<polygon fill="black" stroke="black" points="1904.53,-837.81 1910.18,-828.85 1900.17,-832.33 1904.53,-837.81"/>
</g>
<!-- :core:common -->
<g id="node12" class="node">
<title>:core:common</title>
<ellipse fill="none" stroke="black" cx="1386.73" cy="-18" rx="81.2" ry="18"/>
<text text-anchor="middle" x="1386.73" y="-13.32" font-family="Times,serif" font-size="14.00">:core:common</text>
</g>
<!-- :douyin:core:common&#45;&gt;:core:common -->
<g id="edge20" class="edge">
<title>:douyin:core:common&#45;&gt;:core:common</title>
<path fill="none" stroke="black" d="M507,-396.57C653.78,-333.57 1180.47,-107.53 1340.37,-38.9"/>
<polygon fill="black" stroke="black" points="1341.6,-42.18 1349.41,-35.02 1338.84,-35.74 1341.6,-42.18"/>
</g>
<!-- :douyin:core:datastore -->
<g id="node15" class="node">
<title>:douyin:core:datastore</title>
<ellipse fill="none" stroke="black" cx="825.73" cy="-810" rx="123.81" ry="18"/>
<text text-anchor="middle" x="825.73" y="-805.33" font-family="Times,serif" font-size="14.00">:douyin:core:datastore</text>
</g>
<!-- :douyin:core:data&#45;&gt;:douyin:core:datastore -->
<g id="edge26" class="edge">
<title>:douyin:core:data&#45;&gt;:douyin:core:datastore</title>
<path fill="none" stroke="black" d="M1220.71,-1187.82C1155.24,-1125.35 929.62,-910.12 852.12,-836.18"/>
<polygon fill="black" stroke="black" points="854.58,-833.69 844.93,-829.32 849.75,-838.75 854.58,-833.69"/>
</g>
<!-- :douyin:core:model -->
<g id="node16" class="node">
<title>:douyin:core:model</title>
<ellipse fill="none" stroke="black" cx="1364.73" cy="-414" rx="106.45" ry="18"/>
<text text-anchor="middle" x="1364.73" y="-409.32" font-family="Times,serif" font-size="14.00">:douyin:core:model</text>
</g>
<!-- :douyin:core:data&#45;&gt;:douyin:core:model -->
<g id="edge25" class="edge">
<title>:douyin:core:data&#45;&gt;:douyin:core:model</title>
<path fill="none" stroke="black" d="M1233.24,-1187.88C1215.78,-1130.98 1164.56,-943.21 1196.73,-792 1226.4,-652.49 1311.5,-502.01 1347.89,-441.96"/>
<polygon fill="black" stroke="black" points="1350.87,-443.79 1353.1,-433.43 1344.9,-440.14 1350.87,-443.79"/>
</g>
<!-- :douyin:core:network -->
<g id="node18" class="node">
<title>:douyin:core:network</title>
<ellipse fill="none" stroke="black" cx="1340.73" cy="-810" rx="116.97" ry="18"/>
<text text-anchor="middle" x="1340.73" y="-805.33" font-family="Times,serif" font-size="14.00">:douyin:core:network</text>
</g>
<!-- :douyin:core:data&#45;&gt;:douyin:core:network -->
<g id="edge27" class="edge">
<title>:douyin:core:data&#45;&gt;:douyin:core:network</title>
<path fill="none" stroke="black" d="M1243.24,-1187.56C1259.27,-1125.64 1313.55,-915.98 1333.39,-839.35"/>
<polygon fill="black" stroke="black" points="1336.77,-840.26 1335.88,-829.7 1329.99,-838.51 1336.77,-840.26"/>
</g>
<!-- :douyin:core:designsystem&#45;&gt;:douyin:core:common -->
<g id="edge18" class="edge">
<title>:douyin:core:designsystem&#45;&gt;:douyin:core:common</title>
<path fill="none" stroke="black" d="M927.93,-1187.61C886.67,-1135.16 761.65,-973.2 674.73,-828 591.1,-688.31 510.45,-510.19 480.73,-442.64"/>
<polygon fill="black" stroke="black" points="484.08,-441.56 476.86,-433.8 477.67,-444.37 484.08,-441.56"/>
</g>
<!-- :core:designsystem -->
<g id="node13" class="node">
<title>:core:designsystem</title>
<ellipse fill="none" stroke="black" cx="1632.73" cy="-414" rx="108.03" ry="18"/>
<text text-anchor="middle" x="1632.73" y="-409.32" font-family="Times,serif" font-size="14.00">:core:designsystem</text>
</g>
<!-- :douyin:core:designsystem&#45;&gt;:core:designsystem -->
<g id="edge17" class="edge">
<title>:douyin:core:designsystem&#45;&gt;:core:designsystem</title>
<path fill="none" stroke="black" d="M950.01,-1187.64C978.77,-1128.4 1078.98,-930.25 1196.73,-792 1327.08,-638.95 1521.37,-493.93 1598.95,-438.6"/>
<polygon fill="black" stroke="black" points="1600.89,-441.52 1607.02,-432.88 1596.84,-435.81 1600.89,-441.52"/>
</g>
<!-- :douyin:core:designsystem&#45;&gt;:douyin:core:datastore -->
<g id="edge19" class="edge">
<title>:douyin:core:designsystem&#45;&gt;:douyin:core:datastore</title>
<path fill="none" stroke="red" stroke-width="2" d="M936.59,-1187.56C918.32,-1125.52 856.38,-915.12 833.93,-838.88"/>
<polygon fill="red" stroke="red" stroke-width="2" points="837.84,-839.74 831.66,-831.14 831.12,-841.72 837.84,-839.74"/>
</g>
<!-- :douyin:core:login&#45;&gt;:douyin:core:common -->
<g id="edge32" class="edge">
<title>:douyin:core:login&#45;&gt;:douyin:core:common</title>
<path fill="none" stroke="black" d="M449.02,-1583.78C451.23,-1452.53 465.42,-611.06 468.24,-443.86"/>
<polygon fill="black" stroke="black" points="471.74,-443.96 468.41,-433.91 464.74,-443.85 471.74,-443.96"/>
</g>
<!-- :douyin:core:login&#45;&gt;:douyin:core:router -->
<g id="edge30" class="edge">
<title>:douyin:core:login&#45;&gt;:douyin:core:router</title>
<path fill="none" stroke="black" d="M456.88,-1583.82C486.23,-1521.98 586.62,-1310.47 622.69,-1234.47"/>
<polygon fill="black" stroke="black" points="625.75,-1236.18 626.88,-1225.64 619.43,-1233.17 625.75,-1236.18"/>
</g>
<!-- :douyin:core:login&#45;&gt;:douyin:core:datastore -->
<g id="edge31" class="edge">
<title>:douyin:core:login&#45;&gt;:douyin:core:datastore</title>
<path fill="none" stroke="black" d="M447.44,-1583.54C443.83,-1524.78 437.6,-1329.98 500.73,-1188 570.63,-1030.76 728.43,-890.03 795.09,-835.27"/>
<polygon fill="black" stroke="black" points="797.15,-838.1 802.7,-829.07 792.73,-832.67 797.15,-838.1"/>
</g>
<!-- :douyin:core:test&#45;&gt;:douyin:core:common -->
<g id="edge34" class="edge">
<title>:douyin:core:test&#45;&gt;:douyin:core:common</title>
<path fill="none" stroke="black" d="M185.8,-1583.65C157.7,-1526.81 74.84,-1341.03 108.73,-1188 178.13,-874.57 388.26,-537.49 450.91,-441.72"/>
<polygon fill="black" stroke="black" points="453.75,-443.76 456.33,-433.49 447.91,-439.92 453.75,-443.76"/>
</g>
<!-- :core:test -->
<g id="node20" class="node">
<title>:core:test</title>
<ellipse fill="none" stroke="black" cx="194.73" cy="-1206" rx="58.57" ry="18"/>
<text text-anchor="middle" x="194.73" y="-1201.33" font-family="Times,serif" font-size="14.00">:core:test</text>
</g>
<!-- :douyin:core:test&#45;&gt;:core:test -->
<g id="edge33" class="edge">
<title>:douyin:core:test&#45;&gt;:core:test</title>
<path fill="none" stroke="black" d="M194.73,-1583.56C194.73,-1521.64 194.73,-1311.98 194.73,-1235.35"/>
<polygon fill="black" stroke="black" points="198.23,-1235.75 194.73,-1225.75 191.23,-1235.75 198.23,-1235.75"/>
</g>
<!-- :core:webview -->
<g id="node21" class="node">
<title>:core:webview</title>
<ellipse fill="none" stroke="black" cx="2035.73" cy="-1206" rx="82.77" ry="18"/>
<text text-anchor="middle" x="2035.73" y="-1201.33" font-family="Times,serif" font-size="14.00">:core:webview</text>
</g>
<!-- :douyin:core:webview&#45;&gt;:core:webview -->
<g id="edge35" class="edge">
<title>:douyin:core:webview&#45;&gt;:core:webview</title>
<path fill="none" stroke="black" d="M1943.02,-1583.56C1958.26,-1521.64 2009.88,-1311.98 2028.75,-1235.35"/>
<polygon fill="black" stroke="black" points="2032.13,-1236.25 2031.12,-1225.71 2025.33,-1234.58 2032.13,-1236.25"/>
</g>
<!-- :douyin:shop:core:data&#45;&gt;:douyin:core:data -->
<g id="edge37" class="edge">
<title>:douyin:shop:core:data&#45;&gt;:douyin:core:data</title>
<path fill="none" stroke="black" d="M1531.38,-1583.82C1483.06,-1521.6 1317.06,-1307.86 1258.98,-1233.08"/>
<polygon fill="black" stroke="black" points="1261.97,-1231.22 1253.07,-1225.47 1256.44,-1235.51 1261.97,-1231.22"/>
</g>
<!-- :douyin:shop:core:model -->
<g id="node22" class="node">
<title>:douyin:shop:core:model</title>
<ellipse fill="none" stroke="black" cx="1644.73" cy="-810" rx="133.28" ry="18"/>
<text text-anchor="middle" x="1644.73" y="-805.33" font-family="Times,serif" font-size="14.00">:douyin:shop:core:model</text>
</g>
<!-- :douyin:shop:core:data&#45;&gt;:douyin:shop:core:model -->
<g id="edge38" class="edge">
<title>:douyin:shop:core:data&#45;&gt;:douyin:shop:core:model</title>
<path fill="none" stroke="black" d="M1563.55,-1583.76C1616.13,-1534.16 1764.07,-1384.35 1815.73,-1224 1864.24,-1073.38 1726.98,-900.68 1669.11,-836.63"/>
<polygon fill="black" stroke="black" points="1671.86,-834.45 1662.52,-829.44 1666.7,-839.18 1671.86,-834.45"/>
</g>
<!-- :douyin:shop:core:network -->
<g id="node23" class="node">
<title>:douyin:shop:core:network</title>
<ellipse fill="none" stroke="black" cx="1644.73" cy="-1206" rx="143.8" ry="18"/>
<text text-anchor="middle" x="1644.73" y="-1201.33" font-family="Times,serif" font-size="14.00">:douyin:shop:core:network</text>
</g>
<!-- :douyin:shop:core:data&#45;&gt;:douyin:shop:core:network -->
<g id="edge39" class="edge">
<title>:douyin:shop:core:data&#45;&gt;:douyin:shop:core:network</title>
<path fill="none" stroke="black" d="M1549.15,-1583.56C1564.87,-1521.64 1618.08,-1311.98 1637.53,-1235.35"/>
<polygon fill="black" stroke="black" points="1640.91,-1236.26 1639.98,-1225.7 1634.13,-1234.54 1640.91,-1236.26"/>
</g>
<!-- :core:architecture&#45;&gt;:core:common -->
<g id="edge13" class="edge">
<title>:core:architecture&#45;&gt;:core:common</title>
<path fill="none" stroke="black" d="M1928.55,-791.67C1913.74,-732.54 1859.66,-534.69 1767.73,-396 1664.64,-240.49 1489.32,-97.32 1418.15,-42.55"/>
<polygon fill="black" stroke="black" points="1420.48,-39.93 1410.41,-36.63 1416.23,-45.49 1420.48,-39.93"/>
</g>
<!-- :core:architecture&#45;&gt;:core:designsystem -->
<g id="edge14" class="edge">
<title>:core:architecture&#45;&gt;:core:designsystem</title>
<path fill="none" stroke="black" d="M1919.64,-791.82C1872.27,-729.6 1709.52,-515.86 1652.59,-441.08"/>
<polygon fill="black" stroke="black" points="1655.64,-439.31 1646.79,-433.48 1650.07,-443.55 1655.64,-439.31"/>
</g>
<!-- :core:model -->
<g id="node14" class="node">
<title>:core:model</title>
<ellipse fill="none" stroke="black" cx="1609.73" cy="-18" rx="69.62" ry="18"/>
<text text-anchor="middle" x="1609.73" y="-13.32" font-family="Times,serif" font-size="14.00">:core:model</text>
</g>
<!-- :core:architecture&#45;&gt;:core:model -->
<g id="edge15" class="edge">
<title>:core:architecture&#45;&gt;:core:model</title>
<path fill="none" stroke="black" d="M1932.44,-791.79C1930.93,-733.81 1921.58,-541.19 1863.73,-396 1805.35,-249.51 1683.36,-102.03 1632.63,-44.34"/>
<polygon fill="black" stroke="black" points="1635.37,-42.16 1626.12,-37 1630.13,-46.81 1635.37,-42.16"/>
</g>
<!-- :core:designsystem&#45;&gt;:core:common -->
<g id="edge16" class="edge">
<title>:core:designsystem&#45;&gt;:core:common</title>
<path fill="none" stroke="black" d="M1622,-395.82C1583.31,-333.86 1450.79,-121.6 1403.59,-46"/>
<polygon fill="black" stroke="black" points="1406.58,-44.19 1398.31,-37.56 1400.64,-47.89 1406.58,-44.19"/>
</g>
<!-- :douyin:core:datastore&#45;&gt;:douyin:core:common -->
<g id="edge22" class="edge">
<title>:douyin:core:datastore&#45;&gt;:douyin:core:common</title>
<path fill="none" stroke="black" d="M810.16,-791.82C753.67,-729.48 559.33,-514.99 491.95,-440.63"/>
<polygon fill="black" stroke="black" points="494.7,-438.46 485.39,-433.4 489.51,-443.16 494.7,-438.46"/>
</g>
<!-- :douyin:core:datastore&#45;&gt;:douyin:core:model -->
<g id="edge21" class="edge">
<title>:douyin:core:datastore&#45;&gt;:douyin:core:model</title>
<path fill="none" stroke="red" stroke-width="2" d="M848.89,-792.07C934.49,-729.49 1233.21,-511.14 1332.42,-438.62"/>
<polygon fill="red" stroke="red" stroke-width="2" points="1333.2,-442.38 1339.21,-433.65 1329.07,-436.73 1333.2,-442.38"/>
</g>
<!-- :douyin:core:datastore&#45;proto -->
<g id="node17" class="node">
<title>:douyin:core:datastore&#45;proto</title>
<ellipse fill="none" stroke="black" cx="825.73" cy="-414" rx="153.8" ry="18"/>
<text text-anchor="middle" x="825.73" y="-409.32" font-family="Times,serif" font-size="14.00">:douyin:core:datastore&#45;proto</text>
</g>
<!-- :douyin:core:datastore&#45;&gt;:douyin:core:datastore&#45;proto -->
<g id="edge23" class="edge">
<title>:douyin:core:datastore&#45;&gt;:douyin:core:datastore&#45;proto</title>
<path fill="none" stroke="black" d="M825.73,-791.56C825.73,-729.64 825.73,-519.98 825.73,-443.35"/>
<polygon fill="black" stroke="black" points="829.23,-443.75 825.73,-433.75 822.23,-443.75 829.23,-443.75"/>
</g>
<!-- :douyin:core:model&#45;&gt;:core:model -->
<g id="edge24" class="edge">
<title>:douyin:core:model&#45;&gt;:core:model</title>
<path fill="none" stroke="red" stroke-width="2" d="M1375.41,-395.82C1413.94,-333.86 1545.93,-121.6 1592.93,-46"/>
<polygon fill="red" stroke="red" stroke-width="2" points="1595.08,-49.18 1597.39,-38.84 1589.13,-45.49 1595.08,-49.18"/>
</g>
<!-- :core:network -->
<g id="node19" class="node">
<title>:core:network</title>
<ellipse fill="none" stroke="black" cx="1123.73" cy="-414" rx="80.14" ry="18"/>
<text text-anchor="middle" x="1123.73" y="-409.32" font-family="Times,serif" font-size="14.00">:core:network</text>
</g>
<!-- :douyin:core:network&#45;&gt;:core:network -->
<g id="edge28" class="edge">
<title>:douyin:core:network&#45;&gt;:core:network</title>
<path fill="none" stroke="black" d="M1331.26,-791.82C1297.14,-729.86 1180.23,-517.6 1138.6,-442"/>
<polygon fill="black" stroke="black" points="1141.86,-440.67 1133.97,-433.6 1135.73,-444.05 1141.86,-440.67"/>
</g>
<!-- :core:network&#45;&gt;:core:common -->
<g id="edge29" class="edge">
<title>:core:network&#45;&gt;:core:common</title>
<path fill="none" stroke="black" d="M1135.2,-395.82C1176.64,-333.73 1318.82,-120.73 1369.01,-45.54"/>
<polygon fill="black" stroke="black" points="1371.71,-47.79 1374.36,-37.53 1365.89,-43.91 1371.71,-47.79"/>
</g>
<!-- :core:webview&#45;&gt;:core:architecture -->
<g id="edge36" class="edge">
<title>:core:webview&#45;&gt;:core:architecture</title>
<path fill="none" stroke="black" d="M2031.17,-1187.56C2014.98,-1125.64 1960.17,-915.98 1940.14,-839.35"/>
<polygon fill="black" stroke="black" points="1943.53,-838.49 1937.61,-829.7 1936.76,-840.26 1943.53,-838.49"/>
</g>
<!-- :douyin:shop:core:model&#45;&gt;:douyin:core:model -->
<g id="edge40" class="edge">
<title>:douyin:shop:core:model&#45;&gt;:douyin:core:model</title>
<path fill="none" stroke="black" d="M1632.51,-791.82C1588.39,-729.73 1437.02,-516.73 1383.59,-441.54"/>
<polygon fill="black" stroke="black" points="1386.52,-439.63 1377.88,-433.51 1380.82,-443.69 1386.52,-439.63"/>
</g>
<!-- :douyin:shop:core:network&#45;&gt;:douyin:core:network -->
<g id="edge41" class="edge">
<title>:douyin:shop:core:network&#45;&gt;:douyin:core:network</title>
<path fill="none" stroke="black" d="M1631.47,-1187.82C1583.47,-1125.6 1418.55,-911.86 1360.85,-837.08"/>
<polygon fill="black" stroke="black" points="1363.86,-835.25 1354.98,-829.47 1358.32,-839.53 1363.86,-835.25"/>
</g>
</g>
</svg>
