<?xml version="1.0" encoding="UTF-8" standalone="no"?>
<!DOCTYPE svg PUBLIC "-//W3C//DTD SVG 1.1//EN"
 "http://www.w3.org/Graphics/SVG/1.1/DTD/svg11.dtd">
<!-- Generated by graphviz version 10.0.1 (20240210.2158)
 -->
<!-- Title: G Pages: 1 -->
<svg width="275pt" height="836pt"
 viewBox="0.00 0.00 274.56 836.00" xmlns="http://www.w3.org/2000/svg" xmlns:xlink="http://www.w3.org/1999/xlink">
<g id="graph0" class="graph" transform="scale(1 1) rotate(0) translate(4 832)">
<title>G</title>
<polygon fill="white" stroke="none" points="-4,4 -4,-832 270.56,-832 270.56,4 -4,4"/>
<!-- :douyin:shop:core:model -->
<g id="node1" class="node">
<title>:douyin:shop:core:model</title>
<ellipse fill="none" stroke="black" cx="133.28" cy="-810" rx="133.28" ry="18"/>
<text text-anchor="middle" x="133.28" y="-805.33" font-family="Times,serif" font-size="14.00">:douyin:shop:core:model</text>
</g>
<!-- :douyin:core:model -->
<g id="node2" class="node">
<title>:douyin:core:model</title>
<ellipse fill="none" stroke="black" cx="133.28" cy="-414" rx="106.45" ry="18"/>
<text text-anchor="middle" x="133.28" y="-409.32" font-family="Times,serif" font-size="14.00">:douyin:core:model</text>
</g>
<!-- :douyin:shop:core:model&#45;&gt;:douyin:core:model -->
<g id="edge1" class="edge">
<title>:douyin:shop:core:model&#45;&gt;:douyin:core:model</title>
<path fill="none" stroke="red" stroke-width="2" d="M133.28,-791.56C133.28,-729.64 133.28,-519.98 133.28,-443.35"/>
<polygon fill="red" stroke="red" stroke-width="2" points="136.78,-445.26 133.28,-435.26 129.78,-445.26 136.78,-445.26"/>
</g>
<!-- :core:model -->
<g id="node3" class="node">
<title>:core:model</title>
<ellipse fill="none" stroke="black" cx="133.28" cy="-18" rx="69.62" ry="18"/>
<text text-anchor="middle" x="133.28" y="-13.32" font-family="Times,serif" font-size="14.00">:core:model</text>
</g>
<!-- :douyin:core:model&#45;&gt;:core:model -->
<g id="edge2" class="edge">
<title>:douyin:core:model&#45;&gt;:core:model</title>
<path fill="none" stroke="red" stroke-width="2" d="M133.28,-395.56C133.28,-333.64 133.28,-123.98 133.28,-47.35"/>
<polygon fill="red" stroke="red" stroke-width="2" points="136.78,-49.26 133.28,-39.26 129.78,-49.26 136.78,-49.26"/>
</g>
</g>
</svg>
