<?xml version="1.0" encoding="UTF-8" standalone="no"?>
<!DOCTYPE svg PUBLIC "-//W3C//DTD SVG 1.1//EN"
 "http://www.w3.org/Graphics/SVG/1.1/DTD/svg11.dtd">
<!-- Generated by graphviz version 10.0.1 (20240210.2158)
 -->
<!-- Title: G Pages: 1 -->
<svg width="1499pt" height="1628pt"
 viewBox="0.00 0.00 1499.42 1628.00" xmlns="http://www.w3.org/2000/svg" xmlns:xlink="http://www.w3.org/1999/xlink">
<g id="graph0" class="graph" transform="scale(1 1) rotate(0) translate(4 1624)">
<title>G</title>
<polygon fill="white" stroke="none" points="-4,4 -4,-1624 1495.42,-1624 1495.42,4 -4,4"/>
<!-- :douyin:core:architecture -->
<g id="node1" class="node">
<title>:douyin:core:architecture</title>
<ellipse fill="none" stroke="black" cx="529.97" cy="-1602" rx="137.49" ry="18"/>
<text text-anchor="middle" x="529.97" y="-1597.33" font-family="Times,serif" font-size="14.00">:douyin:core:architecture</text>
</g>
<!-- :core:architecture -->
<g id="node2" class="node">
<title>:core:architecture</title>
<ellipse fill="none" stroke="black" cx="104.97" cy="-810" rx="100.66" ry="18"/>
<text text-anchor="middle" x="104.97" y="-805.33" font-family="Times,serif" font-size="14.00">:core:architecture</text>
</g>
<!-- :douyin:core:architecture&#45;&gt;:core:architecture -->
<g id="edge1" class="edge">
<title>:douyin:core:architecture&#45;&gt;:core:architecture</title>
<path fill="none" stroke="black" d="M520.7,-1583.77C466.14,-1482.36 187.07,-963.61 119.64,-838.28"/>
<polygon fill="black" stroke="black" points="122.84,-836.83 115.02,-829.68 116.67,-840.14 122.84,-836.83"/>
</g>
<!-- :douyin:core:designsystem -->
<g id="node3" class="node">
<title>:douyin:core:designsystem</title>
<ellipse fill="none" stroke="black" cx="529.97" cy="-1206" rx="144.86" ry="18"/>
<text text-anchor="middle" x="529.97" y="-1201.33" font-family="Times,serif" font-size="14.00">:douyin:core:designsystem</text>
</g>
<!-- :douyin:core:architecture&#45;&gt;:douyin:core:designsystem -->
<g id="edge2" class="edge">
<title>:douyin:core:architecture&#45;&gt;:douyin:core:designsystem</title>
<path fill="none" stroke="red" stroke-width="2" d="M529.97,-1583.56C529.97,-1521.64 529.97,-1311.98 529.97,-1235.35"/>
<polygon fill="red" stroke="red" stroke-width="2" points="533.47,-1237.26 529.97,-1227.26 526.47,-1237.26 533.47,-1237.26"/>
</g>
<!-- :douyin:core:data -->
<g id="node4" class="node">
<title>:douyin:core:data</title>
<ellipse fill="none" stroke="black" cx="995.97" cy="-1206" rx="98.03" ry="18"/>
<text text-anchor="middle" x="995.97" y="-1201.33" font-family="Times,serif" font-size="14.00">:douyin:core:data</text>
</g>
<!-- :douyin:core:architecture&#45;&gt;:douyin:core:data -->
<g id="edge3" class="edge">
<title>:douyin:core:architecture&#45;&gt;:douyin:core:data</title>
<path fill="none" stroke="black" d="M550.29,-1583.82C624.41,-1521.15 880.36,-1304.75 967.02,-1231.48"/>
<polygon fill="black" stroke="black" points="969.27,-1234.16 974.64,-1225.03 964.75,-1228.81 969.27,-1234.16"/>
</g>
<!-- :core:common -->
<g id="node5" class="node">
<title>:core:common</title>
<ellipse fill="none" stroke="black" cx="389.97" cy="-18" rx="81.2" ry="18"/>
<text text-anchor="middle" x="389.97" y="-13.32" font-family="Times,serif" font-size="14.00">:core:common</text>
</g>
<!-- :core:architecture&#45;&gt;:core:common -->
<g id="edge4" class="edge">
<title>:core:architecture&#45;&gt;:core:common</title>
<path fill="none" stroke="black" d="M94.46,-791.83C60.51,-733.98 -40.71,-541.72 18.97,-396 88.3,-226.7 274.42,-92.58 353.55,-41.42"/>
<polygon fill="black" stroke="black" points="355.29,-44.47 361.83,-36.13 351.52,-38.57 355.29,-44.47"/>
</g>
<!-- :core:designsystem -->
<g id="node6" class="node">
<title>:core:designsystem</title>
<ellipse fill="none" stroke="black" cx="249.97" cy="-414" rx="108.03" ry="18"/>
<text text-anchor="middle" x="249.97" y="-409.32" font-family="Times,serif" font-size="14.00">:core:designsystem</text>
</g>
<!-- :core:architecture&#45;&gt;:core:designsystem -->
<g id="edge5" class="edge">
<title>:core:architecture&#45;&gt;:core:designsystem</title>
<path fill="none" stroke="black" d="M111.39,-791.56C134.22,-729.52 211.65,-519.12 239.71,-442.88"/>
<polygon fill="black" stroke="black" points="242.93,-444.25 243.1,-433.66 236.36,-441.83 242.93,-444.25"/>
</g>
<!-- :core:model -->
<g id="node7" class="node">
<title>:core:model</title>
<ellipse fill="none" stroke="black" cx="989.97" cy="-18" rx="69.62" ry="18"/>
<text text-anchor="middle" x="989.97" y="-13.32" font-family="Times,serif" font-size="14.00">:core:model</text>
</g>
<!-- :core:architecture&#45;&gt;:core:model -->
<g id="edge6" class="edge">
<title>:core:architecture&#45;&gt;:core:model</title>
<path fill="none" stroke="black" d="M99.4,-791.73C80.99,-731.09 28.05,-524.67 114.97,-396 301.38,-120.04 735.77,-44.96 912.8,-25.48"/>
<polygon fill="black" stroke="black" points="913.01,-28.98 922.58,-24.44 912.26,-22.02 913.01,-28.98"/>
</g>
<!-- :douyin:core:designsystem&#45;&gt;:core:designsystem -->
<g id="edge8" class="edge">
<title>:douyin:core:designsystem&#45;&gt;:core:designsystem</title>
<path fill="none" stroke="black" d="M523.86,-1187.77C487.99,-1086.56 304.8,-569.7 259.91,-443.04"/>
<polygon fill="black" stroke="black" points="263.26,-442.03 256.62,-433.77 256.66,-444.37 263.26,-442.03"/>
</g>
<!-- :douyin:core:common -->
<g id="node8" class="node">
<title>:douyin:core:common</title>
<ellipse fill="none" stroke="black" cx="529.97" cy="-414" rx="118.02" ry="18"/>
<text text-anchor="middle" x="529.97" y="-409.32" font-family="Times,serif" font-size="14.00">:douyin:core:common</text>
</g>
<!-- :douyin:core:designsystem&#45;&gt;:douyin:core:common -->
<g id="edge9" class="edge">
<title>:douyin:core:designsystem&#45;&gt;:douyin:core:common</title>
<path fill="none" stroke="black" d="M529.97,-1187.77C529.97,-1086.77 529.97,-571.78 529.97,-443.81"/>
<polygon fill="black" stroke="black" points="533.47,-443.86 529.97,-433.86 526.47,-443.86 533.47,-443.86"/>
</g>
<!-- :douyin:core:datastore -->
<g id="node9" class="node">
<title>:douyin:core:datastore</title>
<ellipse fill="none" stroke="black" cx="848.97" cy="-810" rx="123.81" ry="18"/>
<text text-anchor="middle" x="848.97" y="-805.33" font-family="Times,serif" font-size="14.00">:douyin:core:datastore</text>
</g>
<!-- :douyin:core:designsystem&#45;&gt;:douyin:core:datastore -->
<g id="edge10" class="edge">
<title>:douyin:core:designsystem&#45;&gt;:douyin:core:datastore</title>
<path fill="none" stroke="red" stroke-width="2" d="M543.88,-1187.82C594.25,-1125.6 767.31,-911.86 827.85,-837.08"/>
<polygon fill="red" stroke="red" stroke-width="2" points="829.51,-840.6 833.08,-830.63 824.06,-836.2 829.51,-840.6"/>
</g>
<!-- :douyin:core:data&#45;&gt;:douyin:core:datastore -->
<g id="edge17" class="edge">
<title>:douyin:core:data&#45;&gt;:douyin:core:datastore</title>
<path fill="none" stroke="black" d="M989.46,-1187.56C966.31,-1125.52 887.81,-915.12 859.37,-838.88"/>
<polygon fill="black" stroke="black" points="862.7,-837.8 855.93,-829.65 856.14,-840.25 862.7,-837.8"/>
</g>
<!-- :douyin:core:model -->
<g id="node10" class="node">
<title>:douyin:core:model</title>
<ellipse fill="none" stroke="black" cx="1384.97" cy="-414" rx="106.45" ry="18"/>
<text text-anchor="middle" x="1384.97" y="-409.32" font-family="Times,serif" font-size="14.00">:douyin:core:model</text>
</g>
<!-- :douyin:core:data&#45;&gt;:douyin:core:model -->
<g id="edge16" class="edge">
<title>:douyin:core:data&#45;&gt;:douyin:core:model</title>
<path fill="none" stroke="black" d="M1013.62,-1188.06C1064.59,-1138.09 1213.15,-984.93 1287.97,-828 1352.25,-693.16 1375.56,-512.74 1382.47,-443.6"/>
<polygon fill="black" stroke="black" points="1385.93,-444.18 1383.4,-433.89 1378.96,-443.52 1385.93,-444.18"/>
</g>
<!-- :douyin:core:network -->
<g id="node12" class="node">
<title>:douyin:core:network</title>
<ellipse fill="none" stroke="black" cx="1143.97" cy="-810" rx="116.97" ry="18"/>
<text text-anchor="middle" x="1143.97" y="-805.33" font-family="Times,serif" font-size="14.00">:douyin:core:network</text>
</g>
<!-- :douyin:core:data&#45;&gt;:douyin:core:network -->
<g id="edge18" class="edge">
<title>:douyin:core:data&#45;&gt;:douyin:core:network</title>
<path fill="none" stroke="black" d="M1002.52,-1187.56C1025.82,-1125.52 1104.86,-915.12 1133.5,-838.88"/>
<polygon fill="black" stroke="black" points="1136.72,-840.25 1136.96,-829.65 1130.17,-837.78 1136.72,-840.25"/>
</g>
<!-- :core:designsystem&#45;&gt;:core:common -->
<g id="edge7" class="edge">
<title>:core:designsystem&#45;&gt;:core:common</title>
<path fill="none" stroke="black" d="M256.16,-395.56C278.21,-333.52 352.97,-123.12 380.06,-46.88"/>
<polygon fill="black" stroke="black" points="383.29,-48.26 383.34,-37.66 376.69,-45.91 383.29,-48.26"/>
</g>
<!-- :douyin:core:common&#45;&gt;:core:common -->
<g id="edge11" class="edge">
<title>:douyin:core:common&#45;&gt;:core:common</title>
<path fill="none" stroke="black" d="M523.77,-395.56C501.72,-333.52 426.96,-123.12 399.87,-46.88"/>
<polygon fill="black" stroke="black" points="403.25,-45.91 396.6,-37.66 396.65,-48.26 403.25,-45.91"/>
</g>
<!-- :douyin:core:datastore&#45;&gt;:douyin:core:common -->
<g id="edge13" class="edge">
<title>:douyin:core:datastore&#45;&gt;:douyin:core:common</title>
<path fill="none" stroke="black" d="M835.06,-791.82C784.69,-729.6 611.63,-515.86 551.09,-441.08"/>
<polygon fill="black" stroke="black" points="553.92,-439.02 544.91,-433.45 548.48,-443.42 553.92,-439.02"/>
</g>
<!-- :douyin:core:datastore&#45;&gt;:douyin:core:model -->
<g id="edge12" class="edge">
<title>:douyin:core:datastore&#45;&gt;:douyin:core:model</title>
<path fill="none" stroke="red" stroke-width="2" d="M872,-792.07C957.13,-729.49 1254.18,-511.14 1352.84,-438.62"/>
<polygon fill="red" stroke="red" stroke-width="2" points="1353.6,-442.4 1359.58,-433.66 1349.45,-436.76 1353.6,-442.4"/>
</g>
<!-- :douyin:core:datastore&#45;proto -->
<g id="node11" class="node">
<title>:douyin:core:datastore&#45;proto</title>
<ellipse fill="none" stroke="black" cx="855.97" cy="-414" rx="153.8" ry="18"/>
<text text-anchor="middle" x="855.97" y="-409.32" font-family="Times,serif" font-size="14.00">:douyin:core:datastore&#45;proto</text>
</g>
<!-- :douyin:core:datastore&#45;&gt;:douyin:core:datastore&#45;proto -->
<g id="edge14" class="edge">
<title>:douyin:core:datastore&#45;&gt;:douyin:core:datastore&#45;proto</title>
<path fill="none" stroke="black" d="M849.28,-791.56C850.38,-729.64 854.1,-519.98 855.46,-443.35"/>
<polygon fill="black" stroke="black" points="858.96,-443.81 855.63,-433.75 851.96,-443.69 858.96,-443.81"/>
</g>
<!-- :douyin:core:model&#45;&gt;:core:model -->
<g id="edge15" class="edge">
<title>:douyin:core:model&#45;&gt;:core:model</title>
<path fill="none" stroke="red" stroke-width="2" d="M1367.74,-395.82C1304.97,-333.21 1088.35,-117.13 1014.7,-43.67"/>
<polygon fill="red" stroke="red" stroke-width="2" points="1018.54,-42.55 1008.98,-37.97 1013.59,-47.51 1018.54,-42.55"/>
</g>
<!-- :core:network -->
<g id="node13" class="node">
<title>:core:network</title>
<ellipse fill="none" stroke="black" cx="1143.97" cy="-414" rx="80.14" ry="18"/>
<text text-anchor="middle" x="1143.97" y="-409.32" font-family="Times,serif" font-size="14.00">:core:network</text>
</g>
<!-- :douyin:core:network&#45;&gt;:core:network -->
<g id="edge19" class="edge">
<title>:douyin:core:network&#45;&gt;:core:network</title>
<path fill="none" stroke="black" d="M1143.97,-791.56C1143.97,-729.64 1143.97,-519.98 1143.97,-443.35"/>
<polygon fill="black" stroke="black" points="1147.47,-443.75 1143.97,-433.75 1140.47,-443.75 1147.47,-443.75"/>
</g>
<!-- :core:network&#45;&gt;:core:common -->
<g id="edge20" class="edge">
<title>:core:network&#45;&gt;:core:common</title>
<path fill="none" stroke="black" d="M1113.48,-397.07C994.93,-335.12 564.63,-110.27 430.31,-40.08"/>
<polygon fill="black" stroke="black" points="432.25,-37.15 421.77,-35.62 429.01,-43.35 432.25,-37.15"/>
</g>
</g>
</svg>
