<?xml version="1.0" encoding="UTF-8" standalone="no"?>
<!DOCTYPE svg PUBLIC "-//W3C//DTD SVG 1.1//EN"
 "http://www.w3.org/Graphics/SVG/1.1/DTD/svg11.dtd">
<!-- Generated by graphviz version 10.0.1 (20240210.2158)
 -->
<!-- Title: G Pages: 1 -->
<svg width="296pt" height="1232pt"
 viewBox="0.00 0.00 295.61 1232.00" xmlns="http://www.w3.org/2000/svg" xmlns:xlink="http://www.w3.org/1999/xlink">
<g id="graph0" class="graph" transform="scale(1 1) rotate(0) translate(4 1228)">
<title>G</title>
<polygon fill="white" stroke="none" points="-4,4 -4,-1228 291.61,-1228 291.61,4 -4,4"/>
<!-- :douyin:shop:core:network -->
<g id="node1" class="node">
<title>:douyin:shop:core:network</title>
<ellipse fill="none" stroke="black" cx="143.8" cy="-1206" rx="143.8" ry="18"/>
<text text-anchor="middle" x="143.8" y="-1201.33" font-family="Times,serif" font-size="14.00">:douyin:shop:core:network</text>
</g>
<!-- :douyin:core:network -->
<g id="node2" class="node">
<title>:douyin:core:network</title>
<ellipse fill="none" stroke="black" cx="143.8" cy="-810" rx="116.97" ry="18"/>
<text text-anchor="middle" x="143.8" y="-805.33" font-family="Times,serif" font-size="14.00">:douyin:core:network</text>
</g>
<!-- :douyin:shop:core:network&#45;&gt;:douyin:core:network -->
<g id="edge1" class="edge">
<title>:douyin:shop:core:network&#45;&gt;:douyin:core:network</title>
<path fill="none" stroke="red" stroke-width="2" d="M143.8,-1187.56C143.8,-1125.64 143.8,-915.98 143.8,-839.35"/>
<polygon fill="red" stroke="red" stroke-width="2" points="147.3,-841.26 143.8,-831.26 140.3,-841.26 147.3,-841.26"/>
</g>
<!-- :core:network -->
<g id="node3" class="node">
<title>:core:network</title>
<ellipse fill="none" stroke="black" cx="143.8" cy="-414" rx="80.14" ry="18"/>
<text text-anchor="middle" x="143.8" y="-409.32" font-family="Times,serif" font-size="14.00">:core:network</text>
</g>
<!-- :douyin:core:network&#45;&gt;:core:network -->
<g id="edge2" class="edge">
<title>:douyin:core:network&#45;&gt;:core:network</title>
<path fill="none" stroke="red" stroke-width="2" d="M143.8,-791.56C143.8,-729.64 143.8,-519.98 143.8,-443.35"/>
<polygon fill="red" stroke="red" stroke-width="2" points="147.3,-445.26 143.8,-435.26 140.3,-445.26 147.3,-445.26"/>
</g>
<!-- :core:common -->
<g id="node4" class="node">
<title>:core:common</title>
<ellipse fill="none" stroke="black" cx="143.8" cy="-18" rx="81.2" ry="18"/>
<text text-anchor="middle" x="143.8" y="-13.32" font-family="Times,serif" font-size="14.00">:core:common</text>
</g>
<!-- :core:network&#45;&gt;:core:common -->
<g id="edge3" class="edge">
<title>:core:network&#45;&gt;:core:common</title>
<path fill="none" stroke="red" stroke-width="2" d="M143.8,-395.56C143.8,-333.64 143.8,-123.98 143.8,-47.35"/>
<polygon fill="red" stroke="red" stroke-width="2" points="147.3,-49.26 143.8,-39.26 140.3,-49.26 147.3,-49.26"/>
</g>
</g>
</svg>
