<?xml version="1.0" encoding="UTF-8" standalone="no"?>
<!DOCTYPE svg PUBLIC "-//W3C//DTD SVG 1.1//EN"
 "http://www.w3.org/Graphics/SVG/1.1/DTD/svg11.dtd">
<!-- Generated by graphviz version 10.0.1 (20240210.2158)
 -->
<!-- Title: G Pages: 1 -->
<svg width="486pt" height="1628pt"
 viewBox="0.00 0.00 485.82 1628.00" xmlns="http://www.w3.org/2000/svg" xmlns:xlink="http://www.w3.org/1999/xlink">
<g id="graph0" class="graph" transform="scale(1 1) rotate(0) translate(4 1624)">
<title>G</title>
<polygon fill="white" stroke="none" points="-4,4 -4,-1624 481.82,-1624 481.82,4 -4,4"/>
<!-- :douyin:core:webview -->
<g id="node1" class="node">
<title>:douyin:core:webview</title>
<ellipse fill="none" stroke="black" cx="176.2" cy="-1602" rx="119.6" ry="18"/>
<text text-anchor="middle" x="176.2" y="-1597.33" font-family="Times,serif" font-size="14.00">:douyin:core:webview</text>
</g>
<!-- :core:webview -->
<g id="node2" class="node">
<title>:core:webview</title>
<ellipse fill="none" stroke="black" cx="176.2" cy="-1206" rx="82.77" ry="18"/>
<text text-anchor="middle" x="176.2" y="-1201.33" font-family="Times,serif" font-size="14.00">:core:webview</text>
</g>
<!-- :douyin:core:webview&#45;&gt;:core:webview -->
<g id="edge1" class="edge">
<title>:douyin:core:webview&#45;&gt;:core:webview</title>
<path fill="none" stroke="red" stroke-width="2" d="M176.2,-1583.56C176.2,-1521.64 176.2,-1311.98 176.2,-1235.35"/>
<polygon fill="red" stroke="red" stroke-width="2" points="179.7,-1237.26 176.2,-1227.26 172.7,-1237.26 179.7,-1237.26"/>
</g>
<!-- :core:architecture -->
<g id="node3" class="node">
<title>:core:architecture</title>
<ellipse fill="none" stroke="black" cx="176.2" cy="-810" rx="100.66" ry="18"/>
<text text-anchor="middle" x="176.2" y="-805.33" font-family="Times,serif" font-size="14.00">:core:architecture</text>
</g>
<!-- :core:webview&#45;&gt;:core:architecture -->
<g id="edge2" class="edge">
<title>:core:webview&#45;&gt;:core:architecture</title>
<path fill="none" stroke="red" stroke-width="2" d="M176.2,-1187.56C176.2,-1125.64 176.2,-915.98 176.2,-839.35"/>
<polygon fill="red" stroke="red" stroke-width="2" points="179.7,-841.26 176.2,-831.26 172.7,-841.26 179.7,-841.26"/>
</g>
<!-- :core:common -->
<g id="node4" class="node">
<title>:core:common</title>
<ellipse fill="none" stroke="black" cx="81.2" cy="-18" rx="81.2" ry="18"/>
<text text-anchor="middle" x="81.2" y="-13.32" font-family="Times,serif" font-size="14.00">:core:common</text>
</g>
<!-- :core:architecture&#45;&gt;:core:common -->
<g id="edge3" class="edge">
<title>:core:architecture&#45;&gt;:core:common</title>
<path fill="none" stroke="black" d="M167.66,-791.92C142.09,-739.69 66.35,-576.87 41.2,-432 16.32,-288.72 55.55,-114.58 73.25,-47.36"/>
<polygon fill="black" stroke="black" points="76.58,-48.46 75.8,-37.9 69.82,-46.65 76.58,-48.46"/>
</g>
<!-- :core:designsystem -->
<g id="node5" class="node">
<title>:core:designsystem</title>
<ellipse fill="none" stroke="black" cx="176.2" cy="-414" rx="108.03" ry="18"/>
<text text-anchor="middle" x="176.2" y="-409.32" font-family="Times,serif" font-size="14.00">:core:designsystem</text>
</g>
<!-- :core:architecture&#45;&gt;:core:designsystem -->
<g id="edge4" class="edge">
<title>:core:architecture&#45;&gt;:core:designsystem</title>
<path fill="none" stroke="red" stroke-width="2" d="M176.2,-791.56C176.2,-729.64 176.2,-519.98 176.2,-443.35"/>
<polygon fill="red" stroke="red" stroke-width="2" points="179.7,-445.26 176.2,-435.26 172.7,-445.26 179.7,-445.26"/>
</g>
<!-- :core:model -->
<g id="node6" class="node">
<title>:core:model</title>
<ellipse fill="none" stroke="black" cx="408.2" cy="-414" rx="69.62" ry="18"/>
<text text-anchor="middle" x="408.2" y="-409.32" font-family="Times,serif" font-size="14.00">:core:model</text>
</g>
<!-- :core:architecture&#45;&gt;:core:model -->
<g id="edge5" class="edge">
<title>:core:architecture&#45;&gt;:core:model</title>
<path fill="none" stroke="black" d="M186.31,-791.82C222.8,-729.86 347.78,-517.6 392.3,-442"/>
<polygon fill="black" stroke="black" points="395.2,-443.97 397.26,-433.58 389.17,-440.42 395.2,-443.97"/>
</g>
<!-- :core:designsystem&#45;&gt;:core:common -->
<g id="edge6" class="edge">
<title>:core:designsystem&#45;&gt;:core:common</title>
<path fill="none" stroke="red" stroke-width="2" d="M171.99,-395.56C157.06,-333.64 106.51,-123.98 88.03,-47.35"/>
<polygon fill="red" stroke="red" stroke-width="2" points="91.81,-48.08 86.06,-39.18 85,-49.72 91.81,-48.08"/>
</g>
</g>
</svg>
