<?xml version="1.0" encoding="UTF-8" standalone="no"?>
<!DOCTYPE svg PUBLIC "-//W3C//DTD SVG 1.1//EN"
 "http://www.w3.org/Graphics/SVG/1.1/DTD/svg11.dtd">
<!-- Generated by graphviz version 10.0.1 (20240210.2158)
 -->
<!-- Title: G Pages: 1 -->
<svg width="1033pt" height="1232pt"
 viewBox="0.00 0.00 1033.30 1232.00" xmlns="http://www.w3.org/2000/svg" xmlns:xlink="http://www.w3.org/1999/xlink">
<g id="graph0" class="graph" transform="scale(1 1) rotate(0) translate(4 1228)">
<title>G</title>
<polygon fill="white" stroke="none" points="-4,4 -4,-1228 1029.3,-1228 1029.3,4 -4,4"/>
<!-- :douyin:core:login -->
<g id="node1" class="node">
<title>:douyin:core:login</title>
<ellipse fill="none" stroke="black" cx="297.5" cy="-1206" rx="100.66" ry="18"/>
<text text-anchor="middle" x="297.5" y="-1201.33" font-family="Times,serif" font-size="14.00">:douyin:core:login</text>
</g>
<!-- :douyin:core:router -->
<g id="node2" class="node">
<title>:douyin:core:router</title>
<ellipse fill="none" stroke="black" cx="107.5" cy="-810" rx="107.5" ry="18"/>
<text text-anchor="middle" x="107.5" y="-805.33" font-family="Times,serif" font-size="14.00">:douyin:core:router</text>
</g>
<!-- :douyin:core:login&#45;&gt;:douyin:core:router -->
<g id="edge1" class="edge">
<title>:douyin:core:login&#45;&gt;:douyin:core:router</title>
<path fill="none" stroke="black" d="M289.22,-1187.82C259.4,-1125.98 157.4,-914.47 120.75,-838.47"/>
<polygon fill="black" stroke="black" points="123.99,-837.12 116.49,-829.64 117.68,-840.16 123.99,-837.12"/>
</g>
<!-- :douyin:core:datastore -->
<g id="node3" class="node">
<title>:douyin:core:datastore</title>
<ellipse fill="none" stroke="black" cx="539.5" cy="-810" rx="123.81" ry="18"/>
<text text-anchor="middle" x="539.5" y="-805.33" font-family="Times,serif" font-size="14.00">:douyin:core:datastore</text>
</g>
<!-- :douyin:core:login&#45;&gt;:douyin:core:datastore -->
<g id="edge2" class="edge">
<title>:douyin:core:login&#45;&gt;:douyin:core:datastore</title>
<path fill="none" stroke="red" stroke-width="2" d="M308.06,-1187.82C346.11,-1125.86 476.48,-913.6 522.92,-838"/>
<polygon fill="red" stroke="red" stroke-width="2" points="525.06,-841.21 527.31,-830.85 519.09,-837.54 525.06,-841.21"/>
</g>
<!-- :douyin:core:common -->
<g id="node4" class="node">
<title>:douyin:core:common</title>
<ellipse fill="none" stroke="black" cx="279.5" cy="-414" rx="118.02" ry="18"/>
<text text-anchor="middle" x="279.5" y="-409.32" font-family="Times,serif" font-size="14.00">:douyin:core:common</text>
</g>
<!-- :douyin:core:login&#45;&gt;:douyin:core:common -->
<g id="edge3" class="edge">
<title>:douyin:core:login&#45;&gt;:douyin:core:common</title>
<path fill="none" stroke="black" d="M297.11,-1187.77C294.81,-1086.77 283.07,-571.78 280.16,-443.81"/>
<polygon fill="black" stroke="black" points="283.66,-443.78 279.93,-433.86 276.66,-443.94 283.66,-443.78"/>
</g>
<!-- :douyin:core:datastore&#45;&gt;:douyin:core:common -->
<g id="edge5" class="edge">
<title>:douyin:core:datastore&#45;&gt;:douyin:core:common</title>
<path fill="none" stroke="black" d="M528.16,-791.82C487.19,-729.73 346.63,-516.73 297.02,-441.54"/>
<polygon fill="black" stroke="black" points="300.16,-439.96 291.73,-433.54 294.32,-443.81 300.16,-439.96"/>
</g>
<!-- :douyin:core:model -->
<g id="node5" class="node">
<title>:douyin:core:model</title>
<ellipse fill="none" stroke="black" cx="557.5" cy="-414" rx="106.45" ry="18"/>
<text text-anchor="middle" x="557.5" y="-409.32" font-family="Times,serif" font-size="14.00">:douyin:core:model</text>
</g>
<!-- :douyin:core:datastore&#45;&gt;:douyin:core:model -->
<g id="edge4" class="edge">
<title>:douyin:core:datastore&#45;&gt;:douyin:core:model</title>
<path fill="none" stroke="red" stroke-width="2" d="M540.3,-791.56C543.13,-729.64 552.71,-519.98 556.21,-443.35"/>
<polygon fill="red" stroke="red" stroke-width="2" points="559.62,-445.41 556.58,-435.26 552.62,-445.09 559.62,-445.41"/>
</g>
<!-- :douyin:core:datastore&#45;proto -->
<g id="node6" class="node">
<title>:douyin:core:datastore&#45;proto</title>
<ellipse fill="none" stroke="black" cx="871.5" cy="-414" rx="153.8" ry="18"/>
<text text-anchor="middle" x="871.5" y="-409.32" font-family="Times,serif" font-size="14.00">:douyin:core:datastore&#45;proto</text>
</g>
<!-- :douyin:core:datastore&#45;&gt;:douyin:core:datastore&#45;proto -->
<g id="edge6" class="edge">
<title>:douyin:core:datastore&#45;&gt;:douyin:core:datastore&#45;proto</title>
<path fill="none" stroke="black" d="M553.98,-791.82C606.51,-729.48 787.25,-514.99 849.91,-440.63"/>
<polygon fill="black" stroke="black" points="852.2,-443.33 855.97,-433.43 846.85,-438.82 852.2,-443.33"/>
</g>
<!-- :core:common -->
<g id="node8" class="node">
<title>:core:common</title>
<ellipse fill="none" stroke="black" cx="279.5" cy="-18" rx="81.2" ry="18"/>
<text text-anchor="middle" x="279.5" y="-13.32" font-family="Times,serif" font-size="14.00">:core:common</text>
</g>
<!-- :douyin:core:common&#45;&gt;:core:common -->
<g id="edge8" class="edge">
<title>:douyin:core:common&#45;&gt;:core:common</title>
<path fill="none" stroke="black" d="M279.5,-395.56C279.5,-333.64 279.5,-123.98 279.5,-47.35"/>
<polygon fill="black" stroke="black" points="283,-47.75 279.5,-37.75 276,-47.75 283,-47.75"/>
</g>
<!-- :core:model -->
<g id="node7" class="node">
<title>:core:model</title>
<ellipse fill="none" stroke="black" cx="557.5" cy="-18" rx="69.62" ry="18"/>
<text text-anchor="middle" x="557.5" y="-13.32" font-family="Times,serif" font-size="14.00">:core:model</text>
</g>
<!-- :douyin:core:model&#45;&gt;:core:model -->
<g id="edge7" class="edge">
<title>:douyin:core:model&#45;&gt;:core:model</title>
<path fill="none" stroke="red" stroke-width="2" d="M557.5,-395.56C557.5,-333.64 557.5,-123.98 557.5,-47.35"/>
<polygon fill="red" stroke="red" stroke-width="2" points="561,-49.26 557.5,-39.26 554,-49.26 561,-49.26"/>
</g>
</g>
</svg>
