<?xml version="1.0" encoding="UTF-8" standalone="no"?>
<!DOCTYPE svg PUBLIC "-//W3C//DTD SVG 1.1//EN"
 "http://www.w3.org/Graphics/SVG/1.1/DTD/svg11.dtd">
<!-- Generated by graphviz version 10.0.1 (20240210.2158)
 -->
<!-- Title: G Pages: 1 -->
<svg width="1087pt" height="1232pt"
 viewBox="0.00 0.00 1086.59 1232.00" xmlns="http://www.w3.org/2000/svg" xmlns:xlink="http://www.w3.org/1999/xlink">
<g id="graph0" class="graph" transform="scale(1 1) rotate(0) translate(4 1228)">
<title>G</title>
<polygon fill="white" stroke="none" points="-4,4 -4,-1228 1082.59,-1228 1082.59,4 -4,4"/>
<!-- :douyin:core:data -->
<g id="node1" class="node">
<title>:douyin:core:data</title>
<ellipse fill="none" stroke="black" cx="384.45" cy="-1206" rx="98.03" ry="18"/>
<text text-anchor="middle" x="384.45" y="-1201.33" font-family="Times,serif" font-size="14.00">:douyin:core:data</text>
</g>
<!-- :douyin:core:model -->
<g id="node2" class="node">
<title>:douyin:core:model</title>
<ellipse fill="none" stroke="black" cx="106.45" cy="-414" rx="106.45" ry="18"/>
<text text-anchor="middle" x="106.45" y="-409.32" font-family="Times,serif" font-size="14.00">:douyin:core:model</text>
</g>
<!-- :douyin:core:data&#45;&gt;:douyin:core:model -->
<g id="edge1" class="edge">
<title>:douyin:core:data&#45;&gt;:douyin:core:model</title>
<path fill="none" stroke="black" d="M377.01,-1187.91C354.12,-1134.99 283.25,-968.93 233.45,-828 183,-685.21 133.14,-510.79 114.31,-443.43"/>
<polygon fill="black" stroke="black" points="117.73,-442.63 111.67,-433.94 110.98,-444.51 117.73,-442.63"/>
</g>
<!-- :douyin:core:datastore -->
<g id="node3" class="node">
<title>:douyin:core:datastore</title>
<ellipse fill="none" stroke="black" cx="384.45" cy="-810" rx="123.81" ry="18"/>
<text text-anchor="middle" x="384.45" y="-805.33" font-family="Times,serif" font-size="14.00">:douyin:core:datastore</text>
</g>
<!-- :douyin:core:data&#45;&gt;:douyin:core:datastore -->
<g id="edge2" class="edge">
<title>:douyin:core:data&#45;&gt;:douyin:core:datastore</title>
<path fill="none" stroke="red" stroke-width="2" d="M384.45,-1187.56C384.45,-1125.64 384.45,-915.98 384.45,-839.35"/>
<polygon fill="red" stroke="red" stroke-width="2" points="387.95,-841.26 384.45,-831.26 380.95,-841.26 387.95,-841.26"/>
</g>
<!-- :douyin:core:network -->
<g id="node4" class="node">
<title>:douyin:core:network</title>
<ellipse fill="none" stroke="black" cx="838.45" cy="-810" rx="116.97" ry="18"/>
<text text-anchor="middle" x="838.45" y="-805.33" font-family="Times,serif" font-size="14.00">:douyin:core:network</text>
</g>
<!-- :douyin:core:data&#45;&gt;:douyin:core:network -->
<g id="edge3" class="edge">
<title>:douyin:core:data&#45;&gt;:douyin:core:network</title>
<path fill="none" stroke="black" d="M403.96,-1188.07C475.76,-1125.75 725.58,-908.95 810.19,-835.53"/>
<polygon fill="black" stroke="black" points="812.36,-838.28 817.62,-829.08 807.77,-832.99 812.36,-838.28"/>
</g>
<!-- :core:model -->
<g id="node5" class="node">
<title>:core:model</title>
<ellipse fill="none" stroke="black" cx="106.45" cy="-18" rx="69.62" ry="18"/>
<text text-anchor="middle" x="106.45" y="-13.32" font-family="Times,serif" font-size="14.00">:core:model</text>
</g>
<!-- :douyin:core:model&#45;&gt;:core:model -->
<g id="edge4" class="edge">
<title>:douyin:core:model&#45;&gt;:core:model</title>
<path fill="none" stroke="red" stroke-width="2" d="M106.45,-395.56C106.45,-333.64 106.45,-123.98 106.45,-47.35"/>
<polygon fill="red" stroke="red" stroke-width="2" points="109.95,-49.26 106.45,-39.26 102.95,-49.26 109.95,-49.26"/>
</g>
<!-- :douyin:core:datastore&#45;&gt;:douyin:core:model -->
<g id="edge5" class="edge">
<title>:douyin:core:datastore&#45;&gt;:douyin:core:model</title>
<path fill="none" stroke="red" stroke-width="2" d="M372.33,-791.82C328.52,-729.73 178.23,-516.73 125.18,-441.54"/>
<polygon fill="red" stroke="red" stroke-width="2" points="129.01,-440.9 120.38,-434.75 123.29,-444.94 129.01,-440.9"/>
</g>
<!-- :douyin:core:common -->
<g id="node6" class="node">
<title>:douyin:core:common</title>
<ellipse fill="none" stroke="black" cx="384.45" cy="-414" rx="118.02" ry="18"/>
<text text-anchor="middle" x="384.45" y="-409.32" font-family="Times,serif" font-size="14.00">:douyin:core:common</text>
</g>
<!-- :douyin:core:datastore&#45;&gt;:douyin:core:common -->
<g id="edge6" class="edge">
<title>:douyin:core:datastore&#45;&gt;:douyin:core:common</title>
<path fill="none" stroke="black" d="M384.45,-791.56C384.45,-729.64 384.45,-519.98 384.45,-443.35"/>
<polygon fill="black" stroke="black" points="387.95,-443.75 384.45,-433.75 380.95,-443.75 387.95,-443.75"/>
</g>
<!-- :douyin:core:datastore&#45;proto -->
<g id="node7" class="node">
<title>:douyin:core:datastore&#45;proto</title>
<ellipse fill="none" stroke="black" cx="710.45" cy="-414" rx="153.8" ry="18"/>
<text text-anchor="middle" x="710.45" y="-409.32" font-family="Times,serif" font-size="14.00">:douyin:core:datastore&#45;proto</text>
</g>
<!-- :douyin:core:datastore&#45;&gt;:douyin:core:datastore&#45;proto -->
<g id="edge7" class="edge">
<title>:douyin:core:datastore&#45;&gt;:douyin:core:datastore&#45;proto</title>
<path fill="none" stroke="black" d="M398.67,-791.82C450.14,-729.6 627,-515.86 688.87,-441.08"/>
<polygon fill="black" stroke="black" points="691.51,-443.38 695.19,-433.44 686.12,-438.91 691.51,-443.38"/>
</g>
<!-- :core:network -->
<g id="node9" class="node">
<title>:core:network</title>
<ellipse fill="none" stroke="black" cx="998.45" cy="-414" rx="80.14" ry="18"/>
<text text-anchor="middle" x="998.45" y="-409.32" font-family="Times,serif" font-size="14.00">:core:network</text>
</g>
<!-- :douyin:core:network&#45;&gt;:core:network -->
<g id="edge9" class="edge">
<title>:douyin:core:network&#45;&gt;:core:network</title>
<path fill="none" stroke="black" d="M845.53,-791.56C870.73,-729.52 956.17,-519.12 987.13,-442.88"/>
<polygon fill="black" stroke="black" points="990.36,-444.22 990.88,-433.64 983.88,-441.59 990.36,-444.22"/>
</g>
<!-- :core:common -->
<g id="node8" class="node">
<title>:core:common</title>
<ellipse fill="none" stroke="black" cx="691.45" cy="-18" rx="81.2" ry="18"/>
<text text-anchor="middle" x="691.45" y="-13.32" font-family="Times,serif" font-size="14.00">:core:common</text>
</g>
<!-- :douyin:core:common&#45;&gt;:core:common -->
<g id="edge8" class="edge">
<title>:douyin:core:common&#45;&gt;:core:common</title>
<path fill="none" stroke="black" d="M397.84,-395.82C446.42,-333.46 613.62,-118.88 671.52,-44.57"/>
<polygon fill="black" stroke="black" points="674.02,-47.06 677.41,-37.02 668.5,-42.76 674.02,-47.06"/>
</g>
<!-- :core:network&#45;&gt;:core:common -->
<g id="edge10" class="edge">
<title>:core:network&#45;&gt;:core:common</title>
<path fill="none" stroke="black" d="M985.06,-395.82C936.47,-333.46 769.28,-118.88 711.38,-44.57"/>
<polygon fill="black" stroke="black" points="714.4,-42.76 705.49,-37.02 708.88,-47.06 714.4,-42.76"/>
</g>
</g>
</svg>
