<?xml version="1.0" encoding="UTF-8" standalone="no"?>
<!DOCTYPE svg PUBLIC "-//W3C//DTD SVG 1.1//EN"
 "http://www.w3.org/Graphics/SVG/1.1/DTD/svg11.dtd">
<!-- Generated by graphviz version 10.0.1 (20240210.2158)
 -->
<!-- Title: G Pages: 1 -->
<svg width="872pt" height="836pt"
 viewBox="0.00 0.00 872.25 836.00" xmlns="http://www.w3.org/2000/svg" xmlns:xlink="http://www.w3.org/1999/xlink">
<g id="graph0" class="graph" transform="scale(1 1) rotate(0) translate(4 832)">
<title>G</title>
<polygon fill="white" stroke="none" points="-4,4 -4,-832 868.25,-832 868.25,4 -4,4"/>
<!-- :douyin:core:datastore -->
<g id="node1" class="node">
<title>:douyin:core:datastore</title>
<ellipse fill="none" stroke="black" cx="384.45" cy="-810" rx="123.81" ry="18"/>
<text text-anchor="middle" x="384.45" y="-805.33" font-family="Times,serif" font-size="14.00">:douyin:core:datastore</text>
</g>
<!-- :douyin:core:model -->
<g id="node2" class="node">
<title>:douyin:core:model</title>
<ellipse fill="none" stroke="black" cx="106.45" cy="-414" rx="106.45" ry="18"/>
<text text-anchor="middle" x="106.45" y="-409.32" font-family="Times,serif" font-size="14.00">:douyin:core:model</text>
</g>
<!-- :douyin:core:datastore&#45;&gt;:douyin:core:model -->
<g id="edge1" class="edge">
<title>:douyin:core:datastore&#45;&gt;:douyin:core:model</title>
<path fill="none" stroke="red" stroke-width="2" d="M372.33,-791.82C328.52,-729.73 178.23,-516.73 125.18,-441.54"/>
<polygon fill="red" stroke="red" stroke-width="2" points="129.01,-440.9 120.38,-434.75 123.29,-444.94 129.01,-440.9"/>
</g>
<!-- :douyin:core:common -->
<g id="node3" class="node">
<title>:douyin:core:common</title>
<ellipse fill="none" stroke="black" cx="384.45" cy="-414" rx="118.02" ry="18"/>
<text text-anchor="middle" x="384.45" y="-409.32" font-family="Times,serif" font-size="14.00">:douyin:core:common</text>
</g>
<!-- :douyin:core:datastore&#45;&gt;:douyin:core:common -->
<g id="edge2" class="edge">
<title>:douyin:core:datastore&#45;&gt;:douyin:core:common</title>
<path fill="none" stroke="black" d="M384.45,-791.56C384.45,-729.64 384.45,-519.98 384.45,-443.35"/>
<polygon fill="black" stroke="black" points="387.95,-443.75 384.45,-433.75 380.95,-443.75 387.95,-443.75"/>
</g>
<!-- :douyin:core:datastore&#45;proto -->
<g id="node4" class="node">
<title>:douyin:core:datastore&#45;proto</title>
<ellipse fill="none" stroke="black" cx="710.45" cy="-414" rx="153.8" ry="18"/>
<text text-anchor="middle" x="710.45" y="-409.32" font-family="Times,serif" font-size="14.00">:douyin:core:datastore&#45;proto</text>
</g>
<!-- :douyin:core:datastore&#45;&gt;:douyin:core:datastore&#45;proto -->
<g id="edge3" class="edge">
<title>:douyin:core:datastore&#45;&gt;:douyin:core:datastore&#45;proto</title>
<path fill="none" stroke="black" d="M398.67,-791.82C450.14,-729.6 627,-515.86 688.87,-441.08"/>
<polygon fill="black" stroke="black" points="691.51,-443.38 695.19,-433.44 686.12,-438.91 691.51,-443.38"/>
</g>
<!-- :core:model -->
<g id="node5" class="node">
<title>:core:model</title>
<ellipse fill="none" stroke="black" cx="106.45" cy="-18" rx="69.62" ry="18"/>
<text text-anchor="middle" x="106.45" y="-13.32" font-family="Times,serif" font-size="14.00">:core:model</text>
</g>
<!-- :douyin:core:model&#45;&gt;:core:model -->
<g id="edge4" class="edge">
<title>:douyin:core:model&#45;&gt;:core:model</title>
<path fill="none" stroke="red" stroke-width="2" d="M106.45,-395.56C106.45,-333.64 106.45,-123.98 106.45,-47.35"/>
<polygon fill="red" stroke="red" stroke-width="2" points="109.95,-49.26 106.45,-39.26 102.95,-49.26 109.95,-49.26"/>
</g>
<!-- :core:common -->
<g id="node6" class="node">
<title>:core:common</title>
<ellipse fill="none" stroke="black" cx="384.45" cy="-18" rx="81.2" ry="18"/>
<text text-anchor="middle" x="384.45" y="-13.32" font-family="Times,serif" font-size="14.00">:core:common</text>
</g>
<!-- :douyin:core:common&#45;&gt;:core:common -->
<g id="edge5" class="edge">
<title>:douyin:core:common&#45;&gt;:core:common</title>
<path fill="none" stroke="black" d="M384.45,-395.56C384.45,-333.64 384.45,-123.98 384.45,-47.35"/>
<polygon fill="black" stroke="black" points="387.95,-47.75 384.45,-37.75 380.95,-47.75 387.95,-47.75"/>
</g>
</g>
</svg>
