<?xml version="1.0" encoding="UTF-8" standalone="no"?>
<!DOCTYPE svg PUBLIC "-//W3C//DTD SVG 1.1//EN"
 "http://www.w3.org/Graphics/SVG/1.1/DTD/svg11.dtd">
<!-- Generated by graphviz version 10.0.1 (20240210.2158)
 -->
<!-- Title: G Pages: 1 -->
<svg width="2025pt" height="2024pt"
 viewBox="0.00 0.00 2025.12 2024.00" xmlns="http://www.w3.org/2000/svg" xmlns:xlink="http://www.w3.org/1999/xlink">
<g id="graph0" class="graph" transform="scale(1 1) rotate(0) translate(4 2020)">
<title>G</title>
<polygon fill="white" stroke="none" points="-4,4 -4,-2020 2021.12,-2020 2021.12,4 -4,4"/>
<!-- :douyin:feature:message -->
<g id="node1" class="node">
<title>:douyin:feature:message</title>
<ellipse fill="none" stroke="black" cx="1231.14" cy="-1998" rx="134.33" ry="18"/>
<text text-anchor="middle" x="1231.14" y="-1993.33" font-family="Times,serif" font-size="14.00">:douyin:feature:message</text>
</g>
<!-- :douyin:core:architecture -->
<g id="node2" class="node">
<title>:douyin:core:architecture</title>
<ellipse fill="none" stroke="black" cx="659.14" cy="-1602" rx="137.49" ry="18"/>
<text text-anchor="middle" x="659.14" y="-1597.33" font-family="Times,serif" font-size="14.00">:douyin:core:architecture</text>
</g>
<!-- :douyin:feature:message&#45;&gt;:douyin:core:architecture -->
<g id="edge1" class="edge">
<title>:douyin:feature:message&#45;&gt;:douyin:core:architecture</title>
<path fill="none" stroke="red" stroke-width="2" d="M1206.57,-1980.07C1115.64,-1917.44 798.15,-1698.75 693.15,-1626.42"/>
<polygon fill="red" stroke="red" stroke-width="2" points="696.67,-1624.6 686.44,-1621.8 692.69,-1630.36 696.67,-1624.6"/>
</g>
<!-- :douyin:core:common -->
<g id="node3" class="node">
<title>:douyin:core:common</title>
<ellipse fill="none" stroke="black" cx="1450.14" cy="-414" rx="118.02" ry="18"/>
<text text-anchor="middle" x="1450.14" y="-409.32" font-family="Times,serif" font-size="14.00">:douyin:core:common</text>
</g>
<!-- :douyin:feature:message&#45;&gt;:douyin:core:common -->
<g id="edge2" class="edge">
<title>:douyin:feature:message&#45;&gt;:douyin:core:common</title>
<path fill="none" stroke="black" d="M1233.57,-1979.5C1255.44,-1821.48 1418.75,-641.77 1446.23,-443.3"/>
<polygon fill="black" stroke="black" points="1449.66,-444.03 1447.56,-433.64 1442.72,-443.07 1449.66,-444.03"/>
</g>
<!-- :douyin:core:data -->
<g id="node4" class="node">
<title>:douyin:core:data</title>
<ellipse fill="none" stroke="black" cx="433.14" cy="-1206" rx="98.03" ry="18"/>
<text text-anchor="middle" x="433.14" y="-1201.33" font-family="Times,serif" font-size="14.00">:douyin:core:data</text>
</g>
<!-- :douyin:feature:message&#45;&gt;:douyin:core:data -->
<g id="edge3" class="edge">
<title>:douyin:feature:message&#45;&gt;:douyin:core:data</title>
<path fill="none" stroke="black" d="M1157.32,-1982.56C1005.75,-1948.73 659.9,-1849.22 495.14,-1620 408.54,-1499.51 420.78,-1307.71 429.18,-1235.63"/>
<polygon fill="black" stroke="black" points="432.63,-1236.22 430.39,-1225.86 425.68,-1235.35 432.63,-1236.22"/>
</g>
<!-- :douyin:core:designsystem -->
<g id="node5" class="node">
<title>:douyin:core:designsystem</title>
<ellipse fill="none" stroke="black" cx="1060.14" cy="-1206" rx="144.86" ry="18"/>
<text text-anchor="middle" x="1060.14" y="-1201.33" font-family="Times,serif" font-size="14.00">:douyin:core:designsystem</text>
</g>
<!-- :douyin:feature:message&#45;&gt;:douyin:core:designsystem -->
<g id="edge4" class="edge">
<title>:douyin:feature:message&#45;&gt;:douyin:core:designsystem</title>
<path fill="none" stroke="black" d="M1227.41,-1979.77C1205.53,-1878.67 1093.85,-1362.74 1066.3,-1235.43"/>
<polygon fill="black" stroke="black" points="1069.76,-1234.86 1064.22,-1225.83 1062.91,-1236.34 1069.76,-1234.86"/>
</g>
<!-- :douyin:core:login -->
<g id="node6" class="node">
<title>:douyin:core:login</title>
<ellipse fill="none" stroke="black" cx="1489.14" cy="-1602" rx="100.66" ry="18"/>
<text text-anchor="middle" x="1489.14" y="-1597.33" font-family="Times,serif" font-size="14.00">:douyin:core:login</text>
</g>
<!-- :douyin:feature:message&#45;&gt;:douyin:core:login -->
<g id="edge5" class="edge">
<title>:douyin:feature:message&#45;&gt;:douyin:core:login</title>
<path fill="none" stroke="black" d="M1242.4,-1979.82C1283.05,-1917.73 1422.53,-1704.73 1471.76,-1629.54"/>
<polygon fill="black" stroke="black" points="1474.45,-1631.82 1477,-1621.54 1468.6,-1627.99 1474.45,-1631.82"/>
</g>
<!-- :douyin:core:router -->
<g id="node7" class="node">
<title>:douyin:core:router</title>
<ellipse fill="none" stroke="black" cx="1697.14" cy="-1206" rx="107.5" ry="18"/>
<text text-anchor="middle" x="1697.14" y="-1201.33" font-family="Times,serif" font-size="14.00">:douyin:core:router</text>
</g>
<!-- :douyin:feature:message&#45;&gt;:douyin:core:router -->
<g id="edge6" class="edge">
<title>:douyin:feature:message&#45;&gt;:douyin:core:router</title>
<path fill="none" stroke="black" d="M1257.53,-1979.96C1328.61,-1932.52 1524.94,-1791.11 1617.14,-1620 1687.58,-1489.3 1696.6,-1305.73 1697.32,-1235.69"/>
<polygon fill="black" stroke="black" points="1700.82,-1235.87 1697.37,-1225.85 1693.82,-1235.83 1700.82,-1235.87"/>
</g>
<!-- :douyin:core:test -->
<g id="node8" class="node">
<title>:douyin:core:test</title>
<ellipse fill="none" stroke="black" cx="1917.14" cy="-1602" rx="95.4" ry="18"/>
<text text-anchor="middle" x="1917.14" y="-1597.33" font-family="Times,serif" font-size="14.00">:douyin:core:test</text>
</g>
<!-- :douyin:feature:message&#45;&gt;:douyin:core:test -->
<g id="edge7" class="edge">
<title>:douyin:feature:message&#45;&gt;:douyin:core:test</title>
<path fill="none" stroke="black" d="M1260.62,-1980.07C1370.38,-1917.03 1755.35,-1695.92 1878.76,-1625.04"/>
<polygon fill="black" stroke="black" points="1880.3,-1628.2 1887.23,-1620.18 1876.81,-1622.13 1880.3,-1628.2"/>
</g>
<!-- :douyin:core:webview -->
<g id="node9" class="node">
<title>:douyin:core:webview</title>
<ellipse fill="none" stroke="black" cx="973.14" cy="-1602" rx="119.6" ry="18"/>
<text text-anchor="middle" x="973.14" y="-1597.33" font-family="Times,serif" font-size="14.00">:douyin:core:webview</text>
</g>
<!-- :douyin:feature:message&#45;&gt;:douyin:core:webview -->
<g id="edge8" class="edge">
<title>:douyin:feature:message&#45;&gt;:douyin:core:webview</title>
<path fill="none" stroke="black" d="M1219.89,-1979.82C1179.24,-1917.73 1039.76,-1704.73 990.52,-1629.54"/>
<polygon fill="black" stroke="black" points="993.69,-1627.99 985.28,-1621.54 987.83,-1631.82 993.69,-1627.99"/>
</g>
<!-- :douyin:core:architecture&#45;&gt;:douyin:core:data -->
<g id="edge11" class="edge">
<title>:douyin:core:architecture&#45;&gt;:douyin:core:data</title>
<path fill="none" stroke="black" d="M649.14,-1583.56C613.41,-1521.26 491.88,-1309.39 448.6,-1233.95"/>
<polygon fill="black" stroke="black" points="451.8,-1232.48 443.78,-1225.55 445.72,-1235.97 451.8,-1232.48"/>
</g>
<!-- :douyin:core:architecture&#45;&gt;:douyin:core:designsystem -->
<g id="edge10" class="edge">
<title>:douyin:core:architecture&#45;&gt;:douyin:core:designsystem</title>
<path fill="none" stroke="red" stroke-width="2" d="M676.63,-1583.82C740.21,-1521.35 959.27,-1306.12 1034.52,-1232.18"/>
<polygon fill="red" stroke="red" stroke-width="2" points="1035.72,-1235.9 1040.4,-1226.4 1030.82,-1230.91 1035.72,-1235.9"/>
</g>
<!-- :core:architecture -->
<g id="node10" class="node">
<title>:core:architecture</title>
<ellipse fill="none" stroke="black" cx="613.14" cy="-810" rx="100.66" ry="18"/>
<text text-anchor="middle" x="613.14" y="-805.33" font-family="Times,serif" font-size="14.00">:core:architecture</text>
</g>
<!-- :douyin:core:architecture&#45;&gt;:core:architecture -->
<g id="edge9" class="edge">
<title>:douyin:core:architecture&#45;&gt;:core:architecture</title>
<path fill="none" stroke="black" d="M658.14,-1583.77C652.26,-1482.77 622.27,-967.78 614.82,-839.81"/>
<polygon fill="black" stroke="black" points="618.32,-839.64 614.24,-829.86 611.33,-840.04 618.32,-839.64"/>
</g>
<!-- :core:common -->
<g id="node11" class="node">
<title>:core:common</title>
<ellipse fill="none" stroke="black" cx="669.14" cy="-18" rx="81.2" ry="18"/>
<text text-anchor="middle" x="669.14" y="-13.32" font-family="Times,serif" font-size="14.00">:core:common</text>
</g>
<!-- :douyin:core:common&#45;&gt;:core:common -->
<g id="edge19" class="edge">
<title>:douyin:core:common&#45;&gt;:core:common</title>
<path fill="none" stroke="black" d="M1417.08,-396.32C1292.3,-333.37 849.95,-110.21 711.14,-40.18"/>
<polygon fill="black" stroke="black" points="712.77,-37.09 702.27,-35.71 709.62,-43.34 712.77,-37.09"/>
</g>
<!-- :douyin:core:datastore -->
<g id="node14" class="node">
<title>:douyin:core:datastore</title>
<ellipse fill="none" stroke="black" cx="891.14" cy="-810" rx="123.81" ry="18"/>
<text text-anchor="middle" x="891.14" y="-805.33" font-family="Times,serif" font-size="14.00">:douyin:core:datastore</text>
</g>
<!-- :douyin:core:data&#45;&gt;:douyin:core:datastore -->
<g id="edge25" class="edge">
<title>:douyin:core:data&#45;&gt;:douyin:core:datastore</title>
<path fill="none" stroke="black" d="M452.82,-1188.07C525.26,-1125.75 777.28,-908.95 862.63,-835.53"/>
<polygon fill="black" stroke="black" points="864.83,-838.25 870.13,-829.07 860.27,-832.94 864.83,-838.25"/>
</g>
<!-- :douyin:core:model -->
<g id="node15" class="node">
<title>:douyin:core:model</title>
<ellipse fill="none" stroke="black" cx="430.14" cy="-414" rx="106.45" ry="18"/>
<text text-anchor="middle" x="430.14" y="-409.32" font-family="Times,serif" font-size="14.00">:douyin:core:model</text>
</g>
<!-- :douyin:core:data&#45;&gt;:douyin:core:model -->
<g id="edge24" class="edge">
<title>:douyin:core:data&#45;&gt;:douyin:core:model</title>
<path fill="none" stroke="black" d="M433.08,-1187.77C432.7,-1086.77 430.74,-571.78 430.25,-443.81"/>
<polygon fill="black" stroke="black" points="433.75,-443.85 430.22,-433.86 426.75,-443.87 433.75,-443.85"/>
</g>
<!-- :douyin:core:network -->
<g id="node17" class="node">
<title>:douyin:core:network</title>
<ellipse fill="none" stroke="black" cx="156.14" cy="-810" rx="116.97" ry="18"/>
<text text-anchor="middle" x="156.14" y="-805.33" font-family="Times,serif" font-size="14.00">:douyin:core:network</text>
</g>
<!-- :douyin:core:data&#45;&gt;:douyin:core:network -->
<g id="edge26" class="edge">
<title>:douyin:core:data&#45;&gt;:douyin:core:network</title>
<path fill="none" stroke="black" d="M421.06,-1187.82C377.41,-1125.73 227.67,-912.73 174.8,-837.54"/>
<polygon fill="black" stroke="black" points="177.77,-835.68 169.16,-829.51 172.05,-839.71 177.77,-835.68"/>
</g>
<!-- :douyin:core:designsystem&#45;&gt;:douyin:core:common -->
<g id="edge17" class="edge">
<title>:douyin:core:designsystem&#45;&gt;:douyin:core:common</title>
<path fill="none" stroke="black" d="M1068.65,-1187.77C1118.66,-1086.46 1374.29,-568.65 1436.49,-442.66"/>
<polygon fill="black" stroke="black" points="1439.62,-444.22 1440.91,-433.7 1433.35,-441.12 1439.62,-444.22"/>
</g>
<!-- :core:designsystem -->
<g id="node12" class="node">
<title>:core:designsystem</title>
<ellipse fill="none" stroke="black" cx="1170.14" cy="-414" rx="108.03" ry="18"/>
<text text-anchor="middle" x="1170.14" y="-409.32" font-family="Times,serif" font-size="14.00">:core:designsystem</text>
</g>
<!-- :douyin:core:designsystem&#45;&gt;:core:designsystem -->
<g id="edge16" class="edge">
<title>:douyin:core:designsystem&#45;&gt;:core:designsystem</title>
<path fill="none" stroke="black" d="M1062.54,-1187.77C1076.62,-1086.67 1148.46,-570.74 1166.19,-443.43"/>
<polygon fill="black" stroke="black" points="1169.61,-444.23 1167.52,-433.85 1162.67,-443.27 1169.61,-444.23"/>
</g>
<!-- :douyin:core:designsystem&#45;&gt;:douyin:core:datastore -->
<g id="edge18" class="edge">
<title>:douyin:core:designsystem&#45;&gt;:douyin:core:datastore</title>
<path fill="none" stroke="red" stroke-width="2" d="M1052.66,-1187.56C1026,-1125.39 935.43,-914.26 902.9,-838.41"/>
<polygon fill="red" stroke="red" stroke-width="2" points="906.89,-838.83 899.73,-831.02 900.46,-841.59 906.89,-838.83"/>
</g>
<!-- :douyin:core:login&#45;&gt;:douyin:core:common -->
<g id="edge31" class="edge">
<title>:douyin:core:login&#45;&gt;:douyin:core:common</title>
<path fill="none" stroke="black" d="M1488.58,-1583.78C1484.26,-1452.53 1456.59,-611.06 1451.09,-443.86"/>
<polygon fill="black" stroke="black" points="1454.59,-443.78 1450.77,-433.91 1447.6,-444.02 1454.59,-443.78"/>
</g>
<!-- :douyin:core:login&#45;&gt;:douyin:core:router -->
<g id="edge29" class="edge">
<title>:douyin:core:login&#45;&gt;:douyin:core:router</title>
<path fill="none" stroke="black" d="M1498.22,-1583.82C1530.92,-1521.86 1642.98,-1309.6 1682.89,-1234"/>
<polygon fill="black" stroke="black" points="1685.75,-1236.09 1687.32,-1225.61 1679.55,-1232.82 1685.75,-1236.09"/>
</g>
<!-- :douyin:core:login&#45;&gt;:douyin:core:datastore -->
<g id="edge30" class="edge">
<title>:douyin:core:login&#45;&gt;:douyin:core:datastore</title>
<path fill="none" stroke="black" d="M1479.89,-1583.77C1448.43,-1525.74 1341.44,-1332.99 1232.14,-1188 1125.3,-1046.27 975.88,-894.56 916.72,-836.02"/>
<polygon fill="black" stroke="black" points="919.31,-833.66 909.74,-829.13 914.4,-838.65 919.31,-833.66"/>
</g>
<!-- :douyin:core:test&#45;&gt;:douyin:core:common -->
<g id="edge33" class="edge">
<title>:douyin:core:test&#45;&gt;:douyin:core:common</title>
<path fill="none" stroke="black" d="M1926.98,-1583.75C1958.33,-1526.45 2051.14,-1337.59 2003.14,-1188 1893.88,-847.47 1573.26,-529.48 1477.47,-439.94"/>
<polygon fill="black" stroke="black" points="1479.99,-437.51 1470.28,-433.26 1475.22,-442.63 1479.99,-437.51"/>
</g>
<!-- :core:test -->
<g id="node19" class="node">
<title>:core:test</title>
<ellipse fill="none" stroke="black" cx="1917.14" cy="-1206" rx="58.57" ry="18"/>
<text text-anchor="middle" x="1917.14" y="-1201.33" font-family="Times,serif" font-size="14.00">:core:test</text>
</g>
<!-- :douyin:core:test&#45;&gt;:core:test -->
<g id="edge32" class="edge">
<title>:douyin:core:test&#45;&gt;:core:test</title>
<path fill="none" stroke="black" d="M1917.14,-1583.56C1917.14,-1521.64 1917.14,-1311.98 1917.14,-1235.35"/>
<polygon fill="black" stroke="black" points="1920.64,-1235.75 1917.14,-1225.75 1913.64,-1235.75 1920.64,-1235.75"/>
</g>
<!-- :core:webview -->
<g id="node20" class="node">
<title>:core:webview</title>
<ellipse fill="none" stroke="black" cx="778.14" cy="-1206" rx="82.77" ry="18"/>
<text text-anchor="middle" x="778.14" y="-1201.33" font-family="Times,serif" font-size="14.00">:core:webview</text>
</g>
<!-- :douyin:core:webview&#45;&gt;:core:webview -->
<g id="edge34" class="edge">
<title>:douyin:core:webview&#45;&gt;:core:webview</title>
<path fill="none" stroke="black" d="M964.51,-1583.56C933.74,-1521.39 829.25,-1310.26 791.71,-1234.41"/>
<polygon fill="black" stroke="black" points="794.92,-1233 787.35,-1225.59 788.65,-1236.11 794.92,-1233"/>
</g>
<!-- :core:architecture&#45;&gt;:core:common -->
<g id="edge12" class="edge">
<title>:core:architecture&#45;&gt;:core:common</title>
<path fill="none" stroke="black" d="M614.37,-791.77C621.53,-690.77 658.03,-175.78 667.1,-47.81"/>
<polygon fill="black" stroke="black" points="670.59,-48.08 667.81,-37.86 663.61,-47.58 670.59,-48.08"/>
</g>
<!-- :core:architecture&#45;&gt;:core:designsystem -->
<g id="edge13" class="edge">
<title>:core:architecture&#45;&gt;:core:designsystem</title>
<path fill="none" stroke="black" d="M637.08,-792.07C725.63,-729.43 1034.86,-510.69 1137.07,-438.4"/>
<polygon fill="black" stroke="black" points="1138.92,-441.37 1145.06,-432.74 1134.88,-435.66 1138.92,-441.37"/>
</g>
<!-- :core:model -->
<g id="node13" class="node">
<title>:core:model</title>
<ellipse fill="none" stroke="black" cx="379.14" cy="-18" rx="69.62" ry="18"/>
<text text-anchor="middle" x="379.14" y="-13.32" font-family="Times,serif" font-size="14.00">:core:model</text>
</g>
<!-- :core:architecture&#45;&gt;:core:model -->
<g id="edge14" class="edge">
<title>:core:architecture&#45;&gt;:core:model</title>
<path fill="none" stroke="black" d="M590.83,-792.16C529.34,-744.18 358,-599.34 297.14,-432 246.16,-291.8 328.58,-112.66 364.1,-45.77"/>
<polygon fill="black" stroke="black" points="366.98,-47.81 368.65,-37.35 360.82,-44.48 366.98,-47.81"/>
</g>
<!-- :core:designsystem&#45;&gt;:core:common -->
<g id="edge15" class="edge">
<title>:core:designsystem&#45;&gt;:core:common</title>
<path fill="none" stroke="black" d="M1148.62,-396.07C1069.03,-333.48 791.32,-115.08 699.14,-42.59"/>
<polygon fill="black" stroke="black" points="701.53,-40.01 691.5,-36.58 697.2,-45.52 701.53,-40.01"/>
</g>
<!-- :douyin:core:datastore&#45;&gt;:douyin:core:common -->
<g id="edge21" class="edge">
<title>:douyin:core:datastore&#45;&gt;:douyin:core:common</title>
<path fill="none" stroke="black" d="M915.16,-792.07C1003.94,-729.5 1313.67,-511.19 1416.6,-438.64"/>
<polygon fill="black" stroke="black" points="1418.51,-441.58 1424.66,-432.96 1414.47,-435.86 1418.51,-441.58"/>
</g>
<!-- :douyin:core:datastore&#45;&gt;:douyin:core:model -->
<g id="edge20" class="edge">
<title>:douyin:core:datastore&#45;&gt;:douyin:core:model</title>
<path fill="none" stroke="red" stroke-width="2" d="M871.04,-791.82C797.72,-729.15 544.52,-512.75 458.78,-439.48"/>
<polygon fill="red" stroke="red" stroke-width="2" points="462.27,-437.85 452.4,-434.02 457.72,-443.18 462.27,-437.85"/>
</g>
<!-- :douyin:core:datastore&#45;proto -->
<g id="node16" class="node">
<title>:douyin:core:datastore&#45;proto</title>
<ellipse fill="none" stroke="black" cx="854.14" cy="-414" rx="153.8" ry="18"/>
<text text-anchor="middle" x="854.14" y="-409.32" font-family="Times,serif" font-size="14.00">:douyin:core:datastore&#45;proto</text>
</g>
<!-- :douyin:core:datastore&#45;&gt;:douyin:core:datastore&#45;proto -->
<g id="edge22" class="edge">
<title>:douyin:core:datastore&#45;&gt;:douyin:core:datastore&#45;proto</title>
<path fill="none" stroke="black" d="M889.51,-791.56C883.69,-729.64 864,-519.98 856.81,-443.35"/>
<polygon fill="black" stroke="black" points="860.32,-443.37 855.9,-433.74 853.35,-444.03 860.32,-443.37"/>
</g>
<!-- :douyin:core:model&#45;&gt;:core:model -->
<g id="edge23" class="edge">
<title>:douyin:core:model&#45;&gt;:core:model</title>
<path fill="none" stroke="red" stroke-width="2" d="M427.89,-395.56C419.87,-333.64 392.73,-123.98 382.81,-47.35"/>
<polygon fill="red" stroke="red" stroke-width="2" points="386.52,-48.71 381.76,-39.24 379.58,-49.61 386.52,-48.71"/>
</g>
<!-- :core:network -->
<g id="node18" class="node">
<title>:core:network</title>
<ellipse fill="none" stroke="black" cx="80.14" cy="-414" rx="80.14" ry="18"/>
<text text-anchor="middle" x="80.14" y="-409.32" font-family="Times,serif" font-size="14.00">:core:network</text>
</g>
<!-- :douyin:core:network&#45;&gt;:core:network -->
<g id="edge27" class="edge">
<title>:douyin:core:network&#45;&gt;:core:network</title>
<path fill="none" stroke="black" d="M152.78,-791.56C140.84,-729.64 100.39,-519.98 85.61,-443.35"/>
<polygon fill="black" stroke="black" points="89.09,-442.88 83.76,-433.72 82.21,-444.2 89.09,-442.88"/>
</g>
<!-- :core:network&#45;&gt;:core:common -->
<g id="edge28" class="edge">
<title>:core:network&#45;&gt;:core:common</title>
<path fill="none" stroke="black" d="M104.7,-396.57C197.6,-334.43 527.66,-113.64 635.08,-41.78"/>
<polygon fill="black" stroke="black" points="636.86,-44.81 643.22,-36.34 632.96,-38.99 636.86,-44.81"/>
</g>
<!-- :core:webview&#45;&gt;:core:architecture -->
<g id="edge35" class="edge">
<title>:core:webview&#45;&gt;:core:architecture</title>
<path fill="none" stroke="black" d="M770.95,-1187.82C745.05,-1125.98 656.47,-914.47 624.65,-838.47"/>
<polygon fill="black" stroke="black" points="628.05,-837.54 620.96,-829.67 621.6,-840.25 628.05,-837.54"/>
</g>
</g>
</svg>
