<?xml version="1.0" encoding="UTF-8" standalone="no"?>
<!DOCTYPE svg PUBLIC "-//W3C//DTD SVG 1.1//EN"
 "http://www.w3.org/Graphics/SVG/1.1/DTD/svg11.dtd">
<!-- Generated by graphviz version 10.0.1 (20240210.2158)
 -->
<!-- Title: G Pages: 1 -->
<svg width="1057pt" height="1232pt"
 viewBox="0.00 0.00 1056.83 1232.00" xmlns="http://www.w3.org/2000/svg" xmlns:xlink="http://www.w3.org/1999/xlink">
<g id="graph0" class="graph" transform="scale(1 1) rotate(0) translate(4 1228)">
<title>G</title>
<polygon fill="white" stroke="none" points="-4,4 -4,-1228 1052.83,-1228 1052.83,4 -4,4"/>
<!-- :douyin:core:designsystem -->
<g id="node1" class="node">
<title>:douyin:core:designsystem</title>
<ellipse fill="none" stroke="black" cx="303.03" cy="-1206" rx="144.86" ry="18"/>
<text text-anchor="middle" x="303.03" y="-1201.33" font-family="Times,serif" font-size="14.00">:douyin:core:designsystem</text>
</g>
<!-- :core:designsystem -->
<g id="node2" class="node">
<title>:core:designsystem</title>
<ellipse fill="none" stroke="black" cx="108.03" cy="-810" rx="108.03" ry="18"/>
<text text-anchor="middle" x="108.03" y="-805.33" font-family="Times,serif" font-size="14.00">:core:designsystem</text>
</g>
<!-- :douyin:core:designsystem&#45;&gt;:core:designsystem -->
<g id="edge1" class="edge">
<title>:douyin:core:designsystem&#45;&gt;:core:designsystem</title>
<path fill="none" stroke="black" d="M294.4,-1187.56C263.63,-1125.39 159.13,-914.26 121.59,-838.41"/>
<polygon fill="black" stroke="black" points="124.8,-837 117.23,-829.59 118.53,-840.11 124.8,-837"/>
</g>
<!-- :douyin:core:common -->
<g id="node3" class="node">
<title>:douyin:core:common</title>
<ellipse fill="none" stroke="black" cx="303.03" cy="-414" rx="118.02" ry="18"/>
<text text-anchor="middle" x="303.03" y="-409.32" font-family="Times,serif" font-size="14.00">:douyin:core:common</text>
</g>
<!-- :douyin:core:designsystem&#45;&gt;:douyin:core:common -->
<g id="edge2" class="edge">
<title>:douyin:core:designsystem&#45;&gt;:douyin:core:common</title>
<path fill="none" stroke="black" d="M303.03,-1187.77C303.03,-1086.77 303.03,-571.78 303.03,-443.81"/>
<polygon fill="black" stroke="black" points="306.53,-443.86 303.03,-433.86 299.53,-443.86 306.53,-443.86"/>
</g>
<!-- :douyin:core:datastore -->
<g id="node4" class="node">
<title>:douyin:core:datastore</title>
<ellipse fill="none" stroke="black" cx="545.03" cy="-810" rx="123.81" ry="18"/>
<text text-anchor="middle" x="545.03" y="-805.33" font-family="Times,serif" font-size="14.00">:douyin:core:datastore</text>
</g>
<!-- :douyin:core:designsystem&#45;&gt;:douyin:core:datastore -->
<g id="edge3" class="edge">
<title>:douyin:core:designsystem&#45;&gt;:douyin:core:datastore</title>
<path fill="none" stroke="red" stroke-width="2" d="M313.74,-1187.56C352,-1125.26 482.14,-913.39 528.48,-837.95"/>
<polygon fill="red" stroke="red" stroke-width="2" points="530.61,-841.17 532.86,-830.82 524.64,-837.51 530.61,-841.17"/>
</g>
<!-- :core:common -->
<g id="node5" class="node">
<title>:core:common</title>
<ellipse fill="none" stroke="black" cx="203.03" cy="-18" rx="81.2" ry="18"/>
<text text-anchor="middle" x="203.03" y="-13.32" font-family="Times,serif" font-size="14.00">:core:common</text>
</g>
<!-- :core:designsystem&#45;&gt;:core:common -->
<g id="edge4" class="edge">
<title>:core:designsystem&#45;&gt;:core:common</title>
<path fill="none" stroke="black" d="M110.1,-791.77C122.26,-690.67 184.3,-174.74 199.61,-47.43"/>
<polygon fill="black" stroke="black" points="203.04,-48.2 200.76,-37.85 196.09,-47.36 203.04,-48.2"/>
</g>
<!-- :douyin:core:common&#45;&gt;:core:common -->
<g id="edge5" class="edge">
<title>:douyin:core:common&#45;&gt;:core:common</title>
<path fill="none" stroke="black" d="M298.6,-395.56C282.89,-333.64 229.67,-123.98 210.22,-47.35"/>
<polygon fill="black" stroke="black" points="213.63,-46.54 207.78,-37.7 206.84,-48.26 213.63,-46.54"/>
</g>
<!-- :douyin:core:datastore&#45;&gt;:douyin:core:common -->
<g id="edge7" class="edge">
<title>:douyin:core:datastore&#45;&gt;:douyin:core:common</title>
<path fill="none" stroke="black" d="M534.47,-791.82C496.42,-729.86 366.05,-517.6 319.61,-442"/>
<polygon fill="black" stroke="black" points="322.65,-440.25 314.43,-433.56 316.68,-443.92 322.65,-440.25"/>
</g>
<!-- :douyin:core:model -->
<g id="node6" class="node">
<title>:douyin:core:model</title>
<ellipse fill="none" stroke="black" cx="581.03" cy="-414" rx="106.45" ry="18"/>
<text text-anchor="middle" x="581.03" y="-409.32" font-family="Times,serif" font-size="14.00">:douyin:core:model</text>
</g>
<!-- :douyin:core:datastore&#45;&gt;:douyin:core:model -->
<g id="edge6" class="edge">
<title>:douyin:core:datastore&#45;&gt;:douyin:core:model</title>
<path fill="none" stroke="red" stroke-width="2" d="M546.62,-791.56C552.28,-729.64 571.44,-519.98 578.44,-443.35"/>
<polygon fill="red" stroke="red" stroke-width="2" points="581.75,-445.53 579.18,-435.25 574.78,-444.89 581.75,-445.53"/>
</g>
<!-- :douyin:core:datastore&#45;proto -->
<g id="node7" class="node">
<title>:douyin:core:datastore&#45;proto</title>
<ellipse fill="none" stroke="black" cx="895.03" cy="-414" rx="153.8" ry="18"/>
<text text-anchor="middle" x="895.03" y="-409.32" font-family="Times,serif" font-size="14.00">:douyin:core:datastore&#45;proto</text>
</g>
<!-- :douyin:core:datastore&#45;&gt;:douyin:core:datastore&#45;proto -->
<g id="edge8" class="edge">
<title>:douyin:core:datastore&#45;&gt;:douyin:core:datastore&#45;proto</title>
<path fill="none" stroke="black" d="M560.29,-791.82C615.67,-729.48 806.2,-514.99 872.26,-440.63"/>
<polygon fill="black" stroke="black" points="874.65,-443.21 878.68,-433.41 869.42,-438.56 874.65,-443.21"/>
</g>
<!-- :core:model -->
<g id="node8" class="node">
<title>:core:model</title>
<ellipse fill="none" stroke="black" cx="581.03" cy="-18" rx="69.62" ry="18"/>
<text text-anchor="middle" x="581.03" y="-13.32" font-family="Times,serif" font-size="14.00">:core:model</text>
</g>
<!-- :douyin:core:model&#45;&gt;:core:model -->
<g id="edge9" class="edge">
<title>:douyin:core:model&#45;&gt;:core:model</title>
<path fill="none" stroke="red" stroke-width="2" d="M581.03,-395.56C581.03,-333.64 581.03,-123.98 581.03,-47.35"/>
<polygon fill="red" stroke="red" stroke-width="2" points="584.53,-49.26 581.03,-39.26 577.53,-49.26 584.53,-49.26"/>
</g>
</g>
</svg>
