<?xml version="1.0" encoding="UTF-8" standalone="no"?>
<!DOCTYPE svg PUBLIC "-//W3C//DTD SVG 1.1//EN"
 "http://www.w3.org/Graphics/SVG/1.1/DTD/svg11.dtd">
<!-- Generated by graphviz version 10.0.1 (20240210.2158)
 -->
<!-- Title: G Pages: 1 -->
<svg width="1184pt" height="1628pt"
 viewBox="0.00 0.00 1184.43 1628.00" xmlns="http://www.w3.org/2000/svg" xmlns:xlink="http://www.w3.org/1999/xlink">
<g id="graph0" class="graph" transform="scale(1 1) rotate(0) translate(4 1624)">
<title>G</title>
<polygon fill="white" stroke="none" points="-4,4 -4,-1624 1180.43,-1624 1180.43,4 -4,4"/>
<!-- :douyin:shop:core:data -->
<g id="node1" class="node">
<title>:douyin:shop:core:data</title>
<ellipse fill="none" stroke="black" cx="623.14" cy="-1602" rx="124.86" ry="18"/>
<text text-anchor="middle" x="623.14" y="-1597.33" font-family="Times,serif" font-size="14.00">:douyin:shop:core:data</text>
</g>
<!-- :douyin:core:data -->
<g id="node2" class="node">
<title>:douyin:core:data</title>
<ellipse fill="none" stroke="black" cx="623.14" cy="-1206" rx="98.03" ry="18"/>
<text text-anchor="middle" x="623.14" y="-1201.33" font-family="Times,serif" font-size="14.00">:douyin:core:data</text>
</g>
<!-- :douyin:shop:core:data&#45;&gt;:douyin:core:data -->
<g id="edge1" class="edge">
<title>:douyin:shop:core:data&#45;&gt;:douyin:core:data</title>
<path fill="none" stroke="red" stroke-width="2" d="M623.14,-1583.56C623.14,-1521.64 623.14,-1311.98 623.14,-1235.35"/>
<polygon fill="red" stroke="red" stroke-width="2" points="626.64,-1237.26 623.14,-1227.26 619.64,-1237.26 626.64,-1237.26"/>
</g>
<!-- :douyin:shop:core:model -->
<g id="node3" class="node">
<title>:douyin:shop:core:model</title>
<ellipse fill="none" stroke="black" cx="1043.14" cy="-810" rx="133.28" ry="18"/>
<text text-anchor="middle" x="1043.14" y="-805.33" font-family="Times,serif" font-size="14.00">:douyin:shop:core:model</text>
</g>
<!-- :douyin:shop:core:data&#45;&gt;:douyin:shop:core:model -->
<g id="edge2" class="edge">
<title>:douyin:shop:core:data&#45;&gt;:douyin:shop:core:model</title>
<path fill="none" stroke="black" d="M632.31,-1583.77C686.22,-1482.36 962.01,-963.61 1028.64,-838.28"/>
<polygon fill="black" stroke="black" points="1031.61,-840.16 1033.21,-829.68 1025.43,-836.87 1031.61,-840.16"/>
</g>
<!-- :douyin:shop:core:network -->
<g id="node4" class="node">
<title>:douyin:shop:core:network</title>
<ellipse fill="none" stroke="black" cx="327.14" cy="-1206" rx="143.8" ry="18"/>
<text text-anchor="middle" x="327.14" y="-1201.33" font-family="Times,serif" font-size="14.00">:douyin:shop:core:network</text>
</g>
<!-- :douyin:shop:core:data&#45;&gt;:douyin:shop:core:network -->
<g id="edge3" class="edge">
<title>:douyin:shop:core:data&#45;&gt;:douyin:shop:core:network</title>
<path fill="none" stroke="black" d="M610.23,-1583.82C563.5,-1521.6 402.92,-1307.86 346.74,-1233.08"/>
<polygon fill="black" stroke="black" points="349.84,-1231.38 341.03,-1225.48 344.24,-1235.58 349.84,-1231.38"/>
</g>
<!-- :douyin:core:model -->
<g id="node5" class="node">
<title>:douyin:core:model</title>
<ellipse fill="none" stroke="black" cx="972.14" cy="-414" rx="106.45" ry="18"/>
<text text-anchor="middle" x="972.14" y="-409.32" font-family="Times,serif" font-size="14.00">:douyin:core:model</text>
</g>
<!-- :douyin:core:data&#45;&gt;:douyin:core:model -->
<g id="edge4" class="edge">
<title>:douyin:core:data&#45;&gt;:douyin:core:model</title>
<path fill="none" stroke="black" d="M630.76,-1187.77C675.51,-1086.46 904.26,-568.65 959.92,-442.66"/>
<polygon fill="black" stroke="black" points="963.03,-444.29 963.87,-433.73 956.63,-441.46 963.03,-444.29"/>
</g>
<!-- :douyin:core:datastore -->
<g id="node6" class="node">
<title>:douyin:core:datastore</title>
<ellipse fill="none" stroke="black" cx="622.14" cy="-810" rx="123.81" ry="18"/>
<text text-anchor="middle" x="622.14" y="-805.33" font-family="Times,serif" font-size="14.00">:douyin:core:datastore</text>
</g>
<!-- :douyin:core:data&#45;&gt;:douyin:core:datastore -->
<g id="edge5" class="edge">
<title>:douyin:core:data&#45;&gt;:douyin:core:datastore</title>
<path fill="none" stroke="red" stroke-width="2" d="M623.1,-1187.56C622.94,-1125.64 622.41,-915.98 622.22,-839.35"/>
<polygon fill="red" stroke="red" stroke-width="2" points="625.72,-841.25 622.2,-831.26 618.72,-841.27 625.72,-841.25"/>
</g>
<!-- :douyin:core:network -->
<g id="node7" class="node">
<title>:douyin:core:network</title>
<ellipse fill="none" stroke="black" cx="327.14" cy="-810" rx="116.97" ry="18"/>
<text text-anchor="middle" x="327.14" y="-805.33" font-family="Times,serif" font-size="14.00">:douyin:core:network</text>
</g>
<!-- :douyin:core:data&#45;&gt;:douyin:core:network -->
<g id="edge6" class="edge">
<title>:douyin:core:data&#45;&gt;:douyin:core:network</title>
<path fill="none" stroke="black" d="M610.23,-1187.82C563.5,-1125.6 402.92,-911.86 346.74,-837.08"/>
<polygon fill="black" stroke="black" points="349.84,-835.38 341.03,-829.48 344.24,-839.58 349.84,-835.38"/>
</g>
<!-- :douyin:shop:core:model&#45;&gt;:douyin:core:model -->
<g id="edge14" class="edge">
<title>:douyin:shop:core:model&#45;&gt;:douyin:core:model</title>
<path fill="none" stroke="black" d="M1040,-791.56C1028.84,-729.64 991.06,-519.98 977.25,-443.35"/>
<polygon fill="black" stroke="black" points="980.74,-442.95 975.52,-433.73 973.85,-444.19 980.74,-442.95"/>
</g>
<!-- :douyin:shop:core:network&#45;&gt;:douyin:core:network -->
<g id="edge15" class="edge">
<title>:douyin:shop:core:network&#45;&gt;:douyin:core:network</title>
<path fill="none" stroke="black" d="M327.14,-1187.56C327.14,-1125.64 327.14,-915.98 327.14,-839.35"/>
<polygon fill="black" stroke="black" points="330.64,-839.75 327.14,-829.75 323.64,-839.75 330.64,-839.75"/>
</g>
<!-- :core:model -->
<g id="node8" class="node">
<title>:core:model</title>
<ellipse fill="none" stroke="black" cx="972.14" cy="-18" rx="69.62" ry="18"/>
<text text-anchor="middle" x="972.14" y="-13.32" font-family="Times,serif" font-size="14.00">:core:model</text>
</g>
<!-- :douyin:core:model&#45;&gt;:core:model -->
<g id="edge7" class="edge">
<title>:douyin:core:model&#45;&gt;:core:model</title>
<path fill="none" stroke="red" stroke-width="2" d="M972.14,-395.56C972.14,-333.64 972.14,-123.98 972.14,-47.35"/>
<polygon fill="red" stroke="red" stroke-width="2" points="975.64,-49.26 972.14,-39.26 968.64,-49.26 975.64,-49.26"/>
</g>
<!-- :douyin:core:datastore&#45;&gt;:douyin:core:model -->
<g id="edge8" class="edge">
<title>:douyin:core:datastore&#45;&gt;:douyin:core:model</title>
<path fill="none" stroke="red" stroke-width="2" d="M637.41,-791.82C692.79,-729.48 883.32,-514.99 949.38,-440.63"/>
<polygon fill="red" stroke="red" stroke-width="2" points="950.76,-444.34 954.79,-434.54 945.53,-439.69 950.76,-444.34"/>
</g>
<!-- :douyin:core:common -->
<g id="node9" class="node">
<title>:douyin:core:common</title>
<ellipse fill="none" stroke="black" cx="694.14" cy="-414" rx="118.02" ry="18"/>
<text text-anchor="middle" x="694.14" y="-409.32" font-family="Times,serif" font-size="14.00">:douyin:core:common</text>
</g>
<!-- :douyin:core:datastore&#45;&gt;:douyin:core:common -->
<g id="edge9" class="edge">
<title>:douyin:core:datastore&#45;&gt;:douyin:core:common</title>
<path fill="none" stroke="black" d="M625.33,-791.56C636.65,-729.64 674.96,-519.98 688.96,-443.35"/>
<polygon fill="black" stroke="black" points="692.37,-444.19 690.72,-433.73 685.48,-442.93 692.37,-444.19"/>
</g>
<!-- :douyin:core:datastore&#45;proto -->
<g id="node10" class="node">
<title>:douyin:core:datastore&#45;proto</title>
<ellipse fill="none" stroke="black" cx="368.14" cy="-414" rx="153.8" ry="18"/>
<text text-anchor="middle" x="368.14" y="-409.32" font-family="Times,serif" font-size="14.00">:douyin:core:datastore&#45;proto</text>
</g>
<!-- :douyin:core:datastore&#45;&gt;:douyin:core:datastore&#45;proto -->
<g id="edge10" class="edge">
<title>:douyin:core:datastore&#45;&gt;:douyin:core:datastore&#45;proto</title>
<path fill="none" stroke="black" d="M611.07,-791.82C571.04,-729.73 433.73,-516.73 385.25,-441.54"/>
<polygon fill="black" stroke="black" points="388.46,-440.05 380.1,-433.55 382.58,-443.85 388.46,-440.05"/>
</g>
<!-- :core:network -->
<g id="node12" class="node">
<title>:core:network</title>
<ellipse fill="none" stroke="black" cx="80.14" cy="-414" rx="80.14" ry="18"/>
<text text-anchor="middle" x="80.14" y="-409.32" font-family="Times,serif" font-size="14.00">:core:network</text>
</g>
<!-- :douyin:core:network&#45;&gt;:core:network -->
<g id="edge12" class="edge">
<title>:douyin:core:network&#45;&gt;:core:network</title>
<path fill="none" stroke="black" d="M316.37,-791.82C277.53,-729.86 144.46,-517.6 97.07,-442"/>
<polygon fill="black" stroke="black" points="100.05,-440.17 91.78,-433.56 94.12,-443.89 100.05,-440.17"/>
</g>
<!-- :core:common -->
<g id="node11" class="node">
<title>:core:common</title>
<ellipse fill="none" stroke="black" cx="387.14" cy="-18" rx="81.2" ry="18"/>
<text text-anchor="middle" x="387.14" y="-13.32" font-family="Times,serif" font-size="14.00">:core:common</text>
</g>
<!-- :douyin:core:common&#45;&gt;:core:common -->
<g id="edge11" class="edge">
<title>:douyin:core:common&#45;&gt;:core:common</title>
<path fill="none" stroke="black" d="M680.76,-395.82C632.17,-333.46 464.97,-118.88 407.07,-44.57"/>
<polygon fill="black" stroke="black" points="410.1,-42.76 401.19,-37.02 404.57,-47.06 410.1,-42.76"/>
</g>
<!-- :core:network&#45;&gt;:core:common -->
<g id="edge13" class="edge">
<title>:core:network&#45;&gt;:core:common</title>
<path fill="none" stroke="black" d="M93.53,-395.82C142.12,-333.46 309.32,-118.88 367.22,-44.57"/>
<polygon fill="black" stroke="black" points="369.71,-47.06 373.1,-37.02 364.19,-42.76 369.71,-47.06"/>
</g>
</g>
</svg>
